<?xml version="1.0" encoding="utf-8"?>
<!-- Generator: Adobe Illustrator 27.7.0, SVG Export Plug-In . SVG Version: 6.00 Build 0)  -->
<svg version="1.1" id="Capa_1" xmlns="http://www.w3.org/2000/svg" xmlns:xlink="http://www.w3.org/1999/xlink" x="0px" y="0px" width="30" height="30"
	 viewBox="0 0 50 50" enable-background="new 0 0 30 30" xml:space="preserve">
<path opacity="0.43" fill="#D81D1D" d="M18.5,511.8c-0.2-0.1-0.3-0.2-0.5-0.3c-0.2,0.1-0.3,0.2-0.5,0.3H18.5z"/>
<g>
	<path fill="#D81D1D" d="M18.1,0.4c0,0-0.1,0-0.1,0c-0.1,0-0.1,0-0.1,0H18.1z"/>
	<path fill="#5CB130" d="M23.6,1.3c-2.3-0.8-4.4-0.9-5.6-0.9c0.1,0,0.1,0,0.1,0h-0.3c0,0,0.1,0,0.1,0c-1.3,0-3.4,0.1-5.7,0.9
		C16.1,1.2,19.8,1.2,23.6,1.3z"/>
	<path fill="#4DB4F7" enable-background="new    " d="M28.9,4.2c-7.2,0-14.4,0.2-21.7-0.1C6.1,5,5,6.2,4,7.7h28
		C31.1,6.3,29.9,5.1,28.9,4.2z"/>
	<path fill="#47459A" enable-background="new    " d="M33.6,11.3L2.4,11.2C2,12.6,1.9,14,2,15.2L34,15.3C34.1,14,34,12.7,33.6,11.3z
		"/>
	<path fill="#B11477" enable-background="new    " d="M34,15.3L2,15.2c0.1,1.5,0.5,2.9,0.9,4.1L33,19.4C33.5,18.2,33.9,16.8,34,15.3
		z"/>
	<path fill="#DE1B80" enable-background="new    " d="M31.8,22.3c0.4-0.8,0.9-1.8,1.3-2.9L3,19.3c0.4,1.1,0.9,2.1,1.3,2.9
		c0.1,0.3,0.3,0.6,0.5,0.9l26.5,0.1C31.4,23,31.6,22.6,31.8,22.3z"/>
	<path fill="#FF1E20" enable-background="new    " d="M31.2,23.3L4.7,23.2c0.9,1.6,1.8,3,2.9,4.3l20.6,0.2
		C29.3,26.4,30.4,24.9,31.2,23.3z"/>
	<path fill="#FD7F03" enable-background="new    " d="M28.2,27.6L7.6,27.5c1.3,1.5,2.7,2.8,4.1,3.9l12.7,0
		C25.7,30.3,27,29.1,28.2,27.6z"/>
	<path fill="#FCD107" enable-background="new    " d="M24.3,31.4l-12.7,0c2.4,1.9,4.8,3.2,6.3,4C19.5,34.6,21.9,33.3,24.3,31.4z"/>
	<path fill="#0899D4" enable-background="new    " d="M33.5,11.1c-0.4-1.3-0.9-2.4-1.5-3.4H4c-0.6,1-1.2,2.1-1.5,3.4
		c0,0,0,0.1,0,0.1l31.1,0.1C33.6,11.2,33.5,11.2,33.5,11.1z"/>
	<path fill="#9BD33A" enable-background="new    " d="M28.9,4.2c-1.6-1.3-3-2-3.3-2.2c-0.7-0.3-1.3-0.6-1.9-0.8
		c-3.8,0-7.6-0.1-11.4,0C11.7,1.5,11,1.7,10.4,2c-0.3,0.1-1.7,0.8-3.2,2.1C14.4,4.4,21.6,4.2,28.9,4.2z"/>
</g>
</svg>
