<?xml version="1.0" encoding="UTF-8"?><svg id="Layer_1" xmlns="http://www.w3.org/2000/svg" xmlns:xlink="http://www.w3.org/1999/xlink" viewBox="0 0 646 191.41"><defs><style>.cls-1{fill:#fff;}.cls-2{fill:#587dbe;}.cls-3{fill:#afacab;}.cls-4,.cls-5,.cls-6{fill:none;}.cls-7{fill:#f9bd00;}.cls-8{fill:#30a043;}.cls-5{clip-path:url(#clippath);}.cls-9{fill:#12100b;}.cls-6{clip-path:url(#clippath-1);}.cls-10{fill:#e43629;}</style><clipPath id="clippath"><rect class="cls-4" width="646" height="191.41"/></clipPath><clipPath id="clippath-1"><rect class="cls-4" y="0" width="646" height="191.41"/></clipPath></defs><g class="cls-5"><g class="cls-6"><path class="cls-9" d="m622.07,191.41H23.93c-13.16,0-23.93-10.77-23.93-23.93V23.93C0,10.77,10.77,0,23.93,0h598.15c13.16,0,23.93,10.77,23.93,23.93v143.56c0,13.16-10.77,23.93-23.93,23.93"/><path class="cls-3" d="m622.07,3.83c11.08,0,20.1,9.02,20.1,20.1v143.56c0,11.08-9.02,20.1-20.1,20.1H23.93c-11.08,0-20.1-9.02-20.1-20.1V23.93C3.83,12.84,12.84,3.83,23.93,3.83h598.15ZM622.07,0H23.93C10.77,0,0,10.77,0,23.93v143.56c0,13.16,10.77,23.93,23.93,23.93h598.15c13.16,0,23.93-10.77,23.93-23.93V23.93C646,10.77,635.23,0,622.07,0"/><path class="cls-1" d="m326.04,104.08c-11.25,0-20.43,8.56-20.43,20.36s9.17,20.35,20.43,20.35,20.43-8.64,20.43-20.35-9.17-20.36-20.43-20.36m0,32.69c-6.17,0-11.49-5.09-11.49-12.33s5.32-12.34,11.49-12.34,11.48,5.01,11.48,12.34-5.32,12.33-11.48,12.33m-44.57-32.69c-11.25,0-20.43,8.56-20.43,20.36s9.17,20.35,20.43,20.35,20.43-8.64,20.43-20.35-9.18-20.36-20.43-20.36m0,32.69c-6.16,0-11.48-5.09-11.48-12.33s5.32-12.34,11.48-12.34,11.49,5.01,11.49,12.34-5.32,12.33-11.49,12.33m-53.01-26.44v8.63h20.66c-.62,4.86-2.23,8.4-4.7,10.87-3.01,3.01-7.71,6.32-15.96,6.32-12.72,0-22.67-10.25-22.67-22.97s9.94-22.97,22.67-22.97c6.86,0,11.87,2.69,15.57,6.16l6.09-6.09c-5.17-4.93-12.03-8.71-21.66-8.71-17.42,0-32.07,14.19-32.07,31.61s14.65,31.61,32.07,31.61c9.4,0,16.49-3.09,22.05-8.87,5.7-5.7,7.48-13.72,7.48-20.2,0-2-.15-3.85-.46-5.39h-29.06Zm216.81,6.7c-1.7-4.55-6.86-12.95-17.42-12.95s-19.19,8.25-19.19,20.36c0,11.41,8.63,20.35,20.19,20.35,9.33,0,14.72-5.7,16.96-9.02l-6.94-4.63c-2.32,3.39-5.47,5.63-10.02,5.63s-7.79-2.08-9.87-6.16l27.21-11.26-.92-2.31Zm-27.75,6.79c-.23-7.87,6.09-11.87,10.64-11.87,3.55,0,6.56,1.77,7.56,4.32l-18.19,7.56Zm-22.13,19.73h8.94v-59.82h-8.94v59.82Zm-14.65-34.92h-.31c-2-2.39-5.86-4.55-10.71-4.55-10.18,0-19.5,8.94-19.5,20.43s9.33,20.27,19.5,20.27c4.86,0,8.71-2.16,10.71-4.63h.31v2.93c0,7.79-4.16,11.95-10.87,11.95-5.47,0-8.87-3.93-10.25-7.24l-7.79,3.24c2.23,5.4,8.17,12.03,18.04,12.03,10.48,0,19.35-6.17,19.35-21.2v-36.54h-8.48v3.32Zm-10.25,28.14c-6.17,0-11.33-5.16-11.33-12.25s5.16-12.41,11.33-12.41,10.87,5.24,10.87,12.41-4.78,12.25-10.87,12.25m116.67-53.03h-21.39v59.82h8.92v-22.66h12.47c9.9,0,19.62-7.17,19.62-18.58s-9.73-18.58-19.62-18.58m.23,28.83h-12.7v-20.51h12.7c6.68,0,10.47,5.53,10.47,10.25s-3.79,10.25-10.47,10.25m55.18-8.59c-6.46,0-13.16,2.85-15.93,9.15l7.93,3.31c1.69-3.31,4.85-4.39,8.16-4.39,4.62,0,9.31,2.77,9.39,7.69v.62c-1.62-.92-5.08-2.31-9.31-2.31-8.54,0-17.24,4.69-17.24,13.47,0,8.01,7.01,13.16,14.85,13.16,6.01,0,9.31-2.69,11.39-5.85h.31v4.62h8.62v-22.94c0-10.62-7.92-16.54-18.16-16.54m-1.08,32.78c-2.93,0-7.01-1.46-7.01-5.08,0-4.62,5.08-6.38,9.47-6.38,3.92,0,5.77.85,8.16,2-.69,5.54-5.46,9.47-10.62,9.47m50.64-31.48l-10.24,25.94h-.31l-10.62-25.94h-9.62l15.93,36.25-9.08,20.16h9.31l24.55-56.41h-9.93Zm-80.42,38.27h8.93v-59.82h-8.93v59.82Z"/><path class="cls-10" d="m99.14,92.95l-50.95,54.07s0,.02,0,.03c1.56,5.87,6.92,10.19,13.29,10.19,2.55,0,4.93-.69,6.98-1.89l.16-.1,57.35-33.09-26.84-29.22Z"/><path class="cls-7" d="m150.68,83.74l-.05-.03-24.76-14.35-27.89,24.82,27.99,27.98,24.62-14.21c4.32-2.34,7.25-6.89,7.25-12.13s-2.89-9.74-7.17-12.08"/><path class="cls-2" d="m48.19,44.39c-.31,1.13-.47,2.32-.47,3.54v95.55c0,1.23.16,2.41.47,3.54l52.69-52.69-52.7-49.94Z"/><path class="cls-8" d="m99.51,95.71l26.37-26.36-57.28-33.21c-2.08-1.25-4.51-1.97-7.11-1.97-6.36,0-11.73,4.33-13.3,10.21,0,0,0,0,0,.01l51.33,51.32Z"/></g><path class="cls-1" d="m199.94,33.04h9.53c3.08,0,5.77.62,8.06,1.87,2.29,1.25,4.05,3,5.29,5.27,1.24,2.26,1.85,4.85,1.85,7.76s-.62,5.5-1.85,7.76c-1.24,2.26-3,4.02-5.29,5.27-2.29,1.25-4.97,1.87-8.06,1.87h-9.53v-29.81Zm9.41,25.48c3.39,0,6.02-.94,7.89-2.81,1.87-1.87,2.81-4.46,2.81-7.76s-.94-5.89-2.81-7.76c-1.87-1.87-4.5-2.81-7.89-2.81h-4.83v21.15h4.83Z"/><path class="cls-1" d="m230.67,33.04h18.07v4.33h-13.49v8.41h12.16v4.33h-12.16v8.41h13.49v4.33h-18.07v-29.81Z"/><path class="cls-1" d="m256.77,61.35c-1.97-1.44-3.34-3.47-4.12-6.08l4.33-1.75c.44,1.67,1.24,3.03,2.37,4.08,1.14,1.06,2.51,1.58,4.12,1.58,1.5,0,2.77-.39,3.81-1.17,1.04-.78,1.56-1.85,1.56-3.21,0-1.25-.46-2.28-1.37-3.1-.92-.82-2.5-1.62-4.75-2.39l-1.87-.67c-2.03-.72-3.71-1.73-5.06-3.02-1.35-1.29-2.02-3-2.02-5.14,0-1.47.4-2.83,1.19-4.08.79-1.25,1.9-2.23,3.33-2.96,1.43-.72,3.05-1.08,4.85-1.08,2.58,0,4.65.63,6.2,1.89,1.55,1.26,2.61,2.69,3.16,4.27l-4.12,1.75c-.28-1-.86-1.86-1.75-2.58-.89-.72-2.04-1.08-3.46-1.08s-2.51.36-3.46,1.08c-.94.72-1.42,1.64-1.42,2.75,0,1.03.42,1.88,1.27,2.56.85.68,2.16,1.33,3.93,1.94l1.91.67c2.55.89,4.52,2.04,5.91,3.46,1.39,1.42,2.08,3.3,2.08,5.66,0,1.94-.49,3.57-1.48,4.89-.99,1.32-2.25,2.3-3.79,2.93-1.54.64-3.12.96-4.73.96-2.47,0-4.69-.72-6.66-2.16Z"/><path class="cls-1" d="m285.14,61.47c-2.37-1.36-4.24-3.23-5.6-5.62-1.36-2.39-2.04-5.02-2.04-7.91s.68-5.52,2.04-7.91c1.36-2.39,3.23-4.26,5.6-5.62,2.37-1.36,5-2.04,7.89-2.04,4.47,0,8.15,1.62,11.03,4.87l-3.21,3.12c-1.03-1.22-2.17-2.14-3.43-2.75-1.26-.61-2.71-.92-4.35-.92-2.03,0-3.87.47-5.54,1.4-1.67.93-2.98,2.25-3.96,3.95-.97,1.71-1.46,3.67-1.46,5.89s.49,4.18,1.46,5.89c.97,1.71,2.29,3.03,3.96,3.95,1.67.93,3.51,1.39,5.54,1.39,3.39,0,6.23-1.4,8.53-4.2l3.29,3.16c-1.44,1.69-3.18,3.01-5.2,3.95-2.03.94-4.25,1.42-6.66,1.42-2.89,0-5.52-.68-7.89-2.04Z"/><path class="cls-1" d="m319.05,33.04h5.2l11.28,29.81h-5.04l-2.75-7.66h-12.16l-2.75,7.66h-5.04l11.24-29.81Zm7.2,17.9l-3.33-9.14-1.12-3.41h-.25l-1.12,3.41-3.33,9.14h9.16Z"/><path class="cls-1" d="m340.03,33.04h10.45c1.8,0,3.43.39,4.89,1.17,1.46.78,2.61,1.86,3.46,3.25.85,1.39,1.27,2.96,1.27,4.7,0,2-.65,3.77-1.94,5.31-1.29,1.54-2.91,2.57-4.85,3.1l-.04.21,8.2,11.82v.25h-5.29l-7.95-11.7h-3.62v11.7h-4.58v-29.81Zm10.32,13.9c1.44,0,2.66-.46,3.64-1.37.98-.92,1.48-2.07,1.48-3.46,0-1.28-.45-2.39-1.35-3.35-.9-.96-2.1-1.44-3.6-1.44h-5.91v9.62h5.75Z"/><path class="cls-1" d="m372.13,61.47c-2.39-1.36-4.28-3.23-5.68-5.6-1.4-2.37-2.1-5.02-2.1-7.93s.7-5.56,2.1-7.93c1.4-2.37,3.3-4.24,5.68-5.6,2.39-1.36,5-2.04,7.83-2.04,2.28,0,4.37.4,6.29,1.21,1.92.81,3.54,1.93,4.87,3.37l-3.16,3.16c-2.03-2.28-4.69-3.41-7.99-3.41-1.94,0-3.76.47-5.45,1.4-1.69.93-3.04,2.25-4.04,3.98-1,1.72-1.5,3.68-1.5,5.87s.51,4.18,1.52,5.89c1.01,1.71,2.36,3.03,4.04,3.95,1.68.93,3.5,1.39,5.47,1.39,3.14,0,5.69-.98,7.66-2.96.64-.61,1.17-1.39,1.6-2.33.43-.94.73-1.98.89-3.12h-10.24v-4.04h14.49c.17.94.25,1.75.25,2.41,0,1.89-.3,3.68-.89,5.39-.6,1.71-1.52,3.21-2.77,4.52-1.33,1.44-2.93,2.55-4.79,3.31-1.86.76-3.94,1.14-6.24,1.14-2.83,0-5.44-.68-7.83-2.04Z"/><path class="cls-1" d="m407.93,33.04h5.2l11.28,29.81h-5.04l-2.75-7.66h-12.16l-2.75,7.66h-5.04l11.24-29.81Zm7.2,17.9l-3.33-9.14-1.12-3.41h-.25l-1.12,3.41-3.33,9.14h9.16Z"/><path class="cls-1" d="m428.91,33.04h10.45c1.8,0,3.43.39,4.89,1.17,1.46.78,2.61,1.86,3.46,3.25.85,1.39,1.27,2.96,1.27,4.7,0,2-.65,3.77-1.94,5.31-1.29,1.54-2.91,2.57-4.85,3.1l-.04.21,8.2,11.82v.25h-5.29l-7.95-11.7h-3.62v11.7h-4.58v-29.81Zm10.32,13.9c1.44,0,2.66-.46,3.64-1.37.98-.92,1.48-2.07,1.48-3.46,0-1.28-.45-2.39-1.35-3.35-.9-.96-2.1-1.44-3.6-1.44h-5.91v9.62h5.75Z"/><path class="cls-1" d="m464.01,33.04h18.07v4.33h-13.49v8.41h12.16v4.33h-12.16v8.41h13.49v4.33h-18.07v-29.81Z"/><path class="cls-1" d="m488.49,33.04h5.41l13.49,21.9h.25l-.25-5.75v-16.15h4.54v29.81h-4.75l-14.15-23.02h-.25l.25,5.75v17.28h-4.54v-29.81Z"/></g></svg>