<?xml version="1.0" encoding="UTF-8"?>
<svg id="Layer_1" data-name="Layer 1" xmlns="http://www.w3.org/2000/svg" xmlns:xlink="http://www.w3.org/1999/xlink" viewBox="0 0 646 191.4">
  <defs>
    <style>
      .cls-1 {
        fill: #12100b;
      }

      .cls-1, .cls-2, .cls-3, .cls-4, .cls-5, .cls-6, .cls-7, .cls-8 {
        stroke-width: 0px;
      }

      .cls-2 {
        fill: #afacab;
      }

      .cls-3 {
        fill: none;
      }

      .cls-4 {
        fill: #f9bd00;
      }

      .cls-9 {
        clip-path: url(#clippath-1);
      }

      .cls-5 {
        fill: #587dbe;
      }

      .cls-6 {
        fill: #fff;
      }

      .cls-7 {
        fill: #e43629;
      }

      .cls-8 {
        fill: #30a043;
      }

      .cls-10 {
        clip-path: url(#clippath);
      }
    </style>
    <clipPath id="clippath">
      <rect class="cls-3" y="0" width="646" height="191.4"/>
    </clipPath>
    <clipPath id="clippath-1">
      <rect class="cls-3" y="0" width="646" height="191.4"/>
    </clipPath>
  </defs>
  <g class="cls-10">
    <g>
      <g class="cls-9">
        <g>
          <path class="cls-1" d="m622.1,191.4H23.9c-13.1,0-23.9-10.8-23.9-23.9V23.9C0,10.8,10.8,0,23.9,0h598.2C635.2,0,646,10.8,646,23.9v143.6c0,13.1-10.8,23.9-23.9,23.9"/>
          <path class="cls-2" d="m622.1,3.8c11.1,0,20.1,9,20.1,20.1v143.6c0,11.1-9,20.1-20.1,20.1H23.9c-11.1,0-20.1-9-20.1-20.1V23.9C3.8,12.8,12.8,3.8,23.9,3.8h598.2ZM622.1,0H23.9C10.8,0,0,10.8,0,23.9v143.6c0,13.2,10.8,23.9,23.9,23.9h598.2c13.2,0,23.9-10.8,23.9-23.9V23.9C646,10.8,635.2,0,622.1,0"/>
          <path class="cls-6" d="m326,104.1c-11.2,0-20.4,8.6-20.4,20.4s9.2,20.4,20.4,20.4,20.4-8.6,20.4-20.3-9.1-20.5-20.4-20.5m0,32.7c-6.2,0-11.5-5.1-11.5-12.3s5.3-12.3,11.5-12.3,11.5,5,11.5,12.3-5.3,12.3-11.5,12.3m-44.5-32.7c-11.2,0-20.4,8.6-20.4,20.4s9.2,20.4,20.4,20.4,20.4-8.6,20.4-20.3-9.2-20.5-20.4-20.5m0,32.7c-6.2,0-11.5-5.1-11.5-12.3s5.3-12.3,11.5-12.3,11.5,5,11.5,12.3-5.4,12.3-11.5,12.3m-53-26.5v8.6h20.7c-.6,4.9-2.2,8.4-4.7,10.9-3,3-7.7,6.3-16,6.3-12.7,0-22.7-10.2-22.7-23s9.9-23,22.7-23c6.9,0,11.9,2.7,15.6,6.2l6.1-6.1c-5.2-4.9-12-8.7-21.7-8.7-17.4,0-32.1,14.2-32.1,31.6s14.6,31.6,32.1,31.6c9.4,0,16.5-3.1,22.1-8.9,5.7-5.7,7.5-13.7,7.5-20.2,0-2-.1-3.8-.5-5.4l-29.1.1h0Zm216.8,6.7c-1.7-4.6-6.9-12.9-17.4-12.9s-19.2,8.2-19.2,20.4c0,11.4,8.6,20.4,20.2,20.4,9.3,0,14.7-5.7,17-9l-6.9-4.6c-2.3,3.4-5.5,5.6-10,5.6s-7.8-2.1-9.9-6.2l27.2-11.3-1-2.4h0Zm-27.8,6.8c-.2-7.9,6.1-11.9,10.6-11.9,3.5,0,6.6,1.8,7.6,4.3l-18.2,7.6h0Zm-22.1,19.8h8.9v-59.9h-8.9v59.9Zm-14.7-35h-.3c-2-2.4-5.9-4.6-10.7-4.6-10.2,0-19.5,8.9-19.5,20.4s9.3,20.3,19.5,20.3c4.9,0,8.7-2.2,10.7-4.6h.3v2.9c0,7.8-4.2,11.9-10.9,11.9-5.5,0-8.9-3.9-10.2-7.2l-7.8,3.2c2.2,5.4,8.2,12,18,12,10.5,0,19.4-6.2,19.4-21.2v-36.5h-8.5v3.4h0Zm-10.2,28.2c-6.2,0-11.3-5.2-11.3-12.2s5.2-12.4,11.3-12.4,10.9,5.2,10.9,12.4-4.8,12.2-10.9,12.2m116.7-53.1h-21.4v59.8h8.9v-22.7h12.5c9.9,0,19.6-7.2,19.6-18.6s-9.7-18.5-19.6-18.5m.2,28.9h-12.7v-20.5h12.7c6.7,0,10.5,5.5,10.5,10.2s-3.8,10.3-10.5,10.3m55.2-8.6c-6.5,0-13.2,2.8-15.9,9.2l7.9,3.3c1.7-3.3,4.8-4.4,8.2-4.4,4.6,0,9.3,2.8,9.4,7.7v.6c-1.6-.9-5.1-2.3-9.3-2.3-8.5,0-17.2,4.7-17.2,13.5,0,8,7,13.2,14.8,13.2,6,0,9.3-2.7,11.4-5.9h.3v4.6h8.6v-22.9c-.1-10.7-8-16.6-18.2-16.6m-1.1,32.7c-2.9,0-7-1.5-7-5.1,0-4.6,5.1-6.4,9.5-6.4,3.9,0,5.8.8,8.2,2-.8,5.6-5.5,9.5-10.7,9.5m50.6-31.4l-10.2,25.9h-.3l-10.6-25.9h-9.6l15.9,36.2-9.1,20.2h9.3l24.5-56.4h-9.9Zm-80.4,38.2h8.9v-59.8h-8.9v59.8h0Z"/>
          <path class="cls-7" d="m99.1,92.9l-51,54.1h0c1.6,5.9,6.9,10.2,13.3,10.2,2.5,0,4.9-.7,7-1.9l.2-.1,57.3-33.1-26.8-29.2h0Z"/>
          <path class="cls-4" d="m150.7,83.7h0l-24.8-14.4-27.9,24.9,28,28,24.6-14.2c4.3-2.3,7.2-6.9,7.2-12.1s-2.9-9.8-7.1-12.2"/>
          <path class="cls-5" d="m48.2,44.4c-.3,1.1-.5,2.3-.5,3.5v95.6c0,1.2.2,2.4.5,3.5l52.7-52.7-52.7-49.9h0Z"/>
          <path class="cls-8" d="m99.5,95.7l26.4-26.4-57.3-33.2c-2.1-1.2-4.5-2-7.1-2-6.4,0-11.7,4.3-13.3,10.2h0l51.3,51.4h0Z"/>
        </g>
      </g>
      <g id="_Group_4" data-name=" Group 4">
        <g>
          <path class="cls-6" d="m201.7,47.5c0-9,4.8-14.6,12.6-14.6,5.8-.3,10.8,3.9,11.6,9.7h-4.3c-.7-3.4-3.8-5.8-7.3-5.6-5,0-8.1,4.1-8.1,10.6s3.1,10.6,8.2,10.6c3.3.3,6.4-1.9,7.3-5.1h4.3c-.9,5.6-5.9,9.6-11.6,9.2-7.9-.2-12.7-5.8-12.7-14.8Z"/>
          <path class="cls-6" d="m230.6,50.9c-.5-5.5,3.5-10.4,9-10.9s10.4,3.5,10.9,9c.1.6.1,1.3,0,1.9.5,5.5-3.5,10.4-9,10.9s-10.4-3.5-10.9-9c-.1-.6-.1-1.3,0-1.9Zm15.6,0c0-4.6-2.1-7.2-5.6-7.2s-5.6,2.7-5.6,7.2,2,7.2,5.6,7.2c3.5.1,5.6-2.6,5.6-7.2Z"/>
          <path class="cls-6" d="m256,40.4h4v3.3h.3c1.1-2.5,3.6-4,6.3-3.8,3.8-.3,7.1,2.5,7.3,6.3,0,.5,0,1-.1,1.5v13.6h-4.2v-12.4c0-3.4-1.5-5.1-4.5-5.1-2.7-.1-4.9,1.9-5,4.6v13h-4.1v-21Z"/>
          <path class="cls-6" d="m288,40c4.7,0,7.8,2.2,8.2,5.9h-4c-.4-1.5-1.9-2.5-4.3-2.5s-4.1,1.1-4.1,2.7c0,1.3,1.1,2.1,3.3,2.6l3.5.8c4,.9,5.9,2.7,5.9,5.7,0,4-3.7,6.6-8.7,6.6s-8.3-2.3-8.6-6h4.2c.7,1.8,2.6,2.9,4.6,2.6,2.6,0,4.4-1.2,4.4-2.8,0-1.3-1-2.1-3.1-2.6l-3.7-.9c-4-.9-5.9-2.7-5.9-5.9.1-3.6,3.6-6.2,8.3-6.2Z"/>
          <path class="cls-6" d="m301.9,36.9l4.9-6.7h4.9l-5.4,6.7h-4.4Zm.4,3.5h4.1v21.1h-4.1v-21.1Z"/>
          <path class="cls-6" d="m312.9,63.6h4.3c.4,1.5,2.1,2.5,4.9,2.5,3.5,0,5.5-1.6,5.5-4.4v-4h-.3c-1.3,2.3-3.8,3.7-6.5,3.5-5.4,0-8.7-4.2-8.7-10.5s3.4-10.6,8.7-10.6c2.7-.1,5.3,1.3,6.6,3.7h.3v-3.4h4v21.2c0,4.8-3.8,7.9-9.7,7.9-5.2,0-8.6-2.4-9.1-5.9Zm14.8-12.9c0-4.2-2.2-6.9-5.7-6.9s-5.6,2.7-5.6,6.9,2,6.9,5.6,6.9c3.5-.1,5.7-2.7,5.7-6.9Z"/>
          <path class="cls-6" d="m356.1,61.4h-4v-3.3h-.3c-1.1,2.5-3.7,4-6.4,3.8-3.8.3-7-2.6-7.3-6.3,0-.5,0-1,.1-1.5v-13.7h4.2v12.6c0,3.4,1.4,5,4.4,5,2.6.2,5-1.7,5.2-4.3v-13.3h4.2l-.1,21Z"/>
          <path class="cls-6" d="m380.6,55.8c-1.2,4-5,6.5-9.1,6.1-5.3.1-9.7-4-9.8-9.3,0-.5,0-1,.1-1.6-.7-5.3,3-10.2,8.3-10.9.5-.1.9-.1,1.4-.1,5.9,0,9.4,4,9.4,10.6v1.4h-14.9v.2c-.3,3.1,2,5.8,5.1,6h.5c2,.2,4-.8,5-2.6l4,.2Zm-14.6-6.8h10.6c.2-2.8-1.9-5.2-4.7-5.4h-.5c-3,0-5.4,2.3-5.5,5.3q.1,0,.1.1Z"/>
          <path class="cls-6" d="m386.6,32.2h4.2v29.3h-4.2v-29.3Z"/>
          <path class="cls-6" d="m396.5,50.9c-.5-5.5,3.5-10.4,9-10.9s10.4,3.5,10.9,9c.1.6.1,1.3,0,1.9.5,5.5-3.5,10.4-9,10.9s-10.4-3.5-10.9-9v-1.9Zm15.6,0c0-4.6-2.1-7.2-5.6-7.2s-5.6,2.7-5.6,7.2,2,7.2,5.6,7.2c3.6.1,5.6-2.6,5.6-7.2Z"/>
          <path class="cls-6" d="m451.2,55.8c-1.2,4-5,6.5-9.1,6.1-5.3.1-9.7-4-9.8-9.3,0-.5,0-1,.1-1.6-.7-5.3,3-10.2,8.3-10.9.5-.1.9-.1,1.4-.1,5.9,0,9.4,4,9.4,10.6v1.4h-14.9v.2c-.3,3.1,2,5.8,5.1,6h.5c2,.2,4-.8,5-2.6l4,.2Zm-14.6-6.8h10.6c.2-2.8-1.9-5.2-4.7-5.4h-.5c-3,0-5.4,2.3-5.5,5.3q.1,0,.1.1h0Z"/>
          <path class="cls-6" d="m457,40.4h4v3.3h.3c1.1-2.5,3.6-4,6.3-3.8,3.8-.3,7.1,2.5,7.3,6.3,0,.5,0,1-.1,1.5v13.6h-4.2v-12.4c0-3.4-1.5-5.1-4.5-5.1-2.7-.1-4.9,1.9-5,4.6v13h-4.1v-21Z"/>
        </g>
      </g>
    </g>
  </g>
</svg>