<?xml version="1.0" encoding="UTF-8"?>
<svg id="Layer_1" data-name="Layer 1" xmlns="http://www.w3.org/2000/svg" viewBox="0 0 150.25 77.31">
  <defs>
    <style>
      .cls-1 {
        fill: #7dd147;
      }

      .cls-1, .cls-2 {
        stroke-width: 0px;
      }

      .cls-2 {
        fill: #39a900;
        opacity: .43;
      }
    </style>
  </defs>
  <path class="cls-2" d="m70.49-10.74,2.73,42.59c.26.09.52.21.79.27.79.17.89.45.35,1.09-.15.18-.23.45-.5.52q-.56-.58-1.96-.64c-.81-.03-1.29-.56-1.07-1.29.28-.91-.07-1.71-.38-2.49-.34-.84-.81-.83-1.6-.4-.73.4-1.33.92-1.98,1.42-.73.56-1.51,1.07-2.53,1.14-1.48.11-2.29,1.16-1.85,2.75.12.43.03.76-.3,1.05-.19.17-.38.34-.37.62.01.49-.31.57-.7.74-.98.43-2.2.41-2.87,1.47-.12.19-.34.15-.53.07-.84-.33-1.46-.77-1.59-1.81-.07-.56.17-1.02.14-1.54-.05-.89-.82-1.34-1.19-2.04-.39-.72-.97-1.14-1.83-.61-.15.09-.39.03-.57.08-.8.22-1.62.44-2.19,1.09-.49.55-.98,1.04-1.78,1.08-.71.04-1.48.38-1.97-.51-.09-.16-.38-.26-.59-.28-1.2-.14-2.41-.4-3.59-.31-1.61.12-2.72-.55-3.62-1.73-.59-.77-1.08-1.61-1.61-2.43-.2-.31-.39-.71-.79-.63-.47.09-1.07.23-1.2.78-.18.76-.67,1.04-1.34,1.17-.59.12-.87.43-.99,1.05-.2.99-.58,1.14-1.55.82-1.04-.35-1.42-.15-1.74.88-.13.43-.21.87-.12,1.32.38,1.97,1.44,3.63,2.46,5.31.58.96,1.35,1.75,2.12,2.55.46.48.59,1.09.47,1.69-.26,1.31.17,1.83,1.44,1.61.81-.14,1.15.23,1.22,1.06.05.6.05,1.35.77,1.64.59.24,1.01.63,1.43,1.08.91.96,2.06,1.05,3.11.35.33-.22.69-.31,1.1-.27.41.04.79-.08.98-.49.2-.44.24-.99.96-.94.49.03.99-.29,1.47,0,.67.39,1.28.14,1.8-.21.63-.43,1.3-.7,2-.96.53-.2.92-.52.69-1.21-.1-.3-.07-.64-.1-.98.41-.12.62-.39.68-.84.09-.72.88-.94,1.15-.68.72.68,1.54.27,2.28.5.46.14.8-.01,1.15-.29.65-.51,1.17-.4,1.6.32.55.91.61.92,1.55.29.37-.25.69-.3,1.02.1.47.58,1.17.85,1.81,1.16.47.23.72.49.85,1.01.28,1.15.49,1.16,1.63.91,1.12-.25,2.31-.68,3.43.08.19.13.36.09.52-.09.9-1.01,2.06-1.54,3.38-1.76.22-.04.39-.2.55-.36.76-.73.9-2.07,2.21-2.25.05,0,.1-.12.14-.2.36-.84-.25-2.38-1.13-2.68-.86-.29-1.67-.65-2.41-1.26.69-.93.17-2.46,1.71-2.85.38.84,1.29,1.12,2.14,1.37.96.28,1.25,1.25,2.02,1.75.2.13.75.78.64,1.4-.11.67.26,1.11.78,1.45,1.01.66.97.7.57,1.77-.27.72-.87,1.33-.82,2.14.07.95.57,1.88.01,2.83-.06.1.05.32.11.47.54,1.34,2.75,1.77,3.81.75.18-.17.28-.43.59-.37,1.17.22,2.02-.3,2.72-1.18.16-.2.37-.32.63-.38,1.15-.26,2.17-.88,2.91-1.7.66-.73,1.11-.57,1.74-.2.48.28.95.27,1.21-.26.28-.58.81-.79,1.29-1.12.71-.49,1.68-.75,1.95-1.7.12-.41.35-.74.5-1.12.32-.78,1.1-1.31,1.28-2.13.2-.9.84-1.02,1.43-.77,1.52.65,2.85.12,4.02-.66,2.2-1.46,4.61-2.37,7.1-3.15.55-.17,1.03-.42,1.33-.93.14-.24.38-.33.64-.31.58.05,1.08-.24,1.61-.37.92-.22,1.56-1.01,2.44-1.21,1.17-.27,2.25-.71,3.33-1.17.54-.23,1.27.09,1.66-.42.77-1.03,1.88-1.31,3-1.65.29-.09.63-.2.81-.42.82-.98,1.94-1.51,3.08-1.88,1.44-.47,1.9-1.67,2.47-2.81.35-.69.51-1.55,1.03-2.05.94-.91,1.46-1.99,1.8-3.19.24-.83,1.11-1.33,1.94-1.07.21.07.41.17.64.1,1.22-.32,2.38-.72,3.21-1.79.47-.61,1.05-1.15,1.66-1.62.44-.34.97-.65,1.61-.35.31.15.6-.02.87-.16.62-.33,1.26-.58,1.94-.74.58-.14,1.87-2.12,1.78-2.71-.05-.3-.17-.59-.47-.75-.19-.1-.41-.17-.53-.4.13-.26.28-.53.4-.81.12-.28.18-.59.33-.84.77-1.27.68-1.67-.58-2.37-.45-.25-.87-.43-1.11-1.01-.22-.55-.89-.85-1.47-.4-.58.45-1.31.73-1.7,1.42-.32.55-.89.76-1.45,1.03-1.09.52-2.35.44-3.39,1.08-.11.07-.27.06-.41.05-1.48-.13-2.8.15-3.73,1.43-.15.2-.33.14-.52.12-1.24-.07-1.81.37-2.29,1.54-.17.41-.28,1.08-1.01.97-.97-.15-1.73.26-2.12,1.17-.23.54-.5,1.06-.72,1.59-.25.62-.72.9-1.36.89-.44,0-.78.19-1.15.42-1.12.71-2.01,1.89-3.55,1.78-.09,0-.2.08-.29.14-1.31.81-2.58.62-3.82-.16-.66-.41-1.32-.8-1.97-1.2-.29-.18-.82-.14-.65-.76.14-.51.37-.83.95-.86.55-.03.96-.37,1.04-.92.06-.38.18-.66.44-.94.55-.58.31-1.37.39-2.06.06-.49-.64-.61-1.04-.84-.36-.21-.71-.44-1.06-.65-1.03-.62-2.08-1.16-3.36-.69-.34.13-.83.22-1.19-.07q-1.65-1.34-3.2-.33c-.4-.11-.62-.48-.69-.79-.4-1.81-2.15-1.59-3.31-2.23-.28-.15-.63,0-.82.26-.31.41-.64.52-1.15.39-.37-.09-.8-.12-1.16-.02-.63.17-1.05-.03-1.46-.48-.33-.37-.81-.57-1.28-.33-.58.29-1.06.68-1.8.37-.3-.13-.63.25-.81.6-.22.44-.62.63-1.03.89-.81.51-1.83.75-2.41,1.56-.76,1.06-1.88,1.86-2.2,3.23-.07.32-.36.56-.71.65-1.24.32-2.36,1.13-3.74.89-.15-.03-.32.07-.48.14-.56.24-1.15.3-1.75.39-.86.12-1.71-.2-2.55.11-.6.22-1.23.34-1.88.35-.59,0-.96.33-1.18.89-.36.94-.99,1.67-1.8,2.23-.51.35-.99.31-1.17-.35-.34-1.26-1.29-2.11-2.1-3.01-.77-.85-1-1.72-.76-2.76.11-.45,0-.76-.34-1.02-.85-.65-2.89-.7-3.35.84-.12.39-.34.76-.54,1.12-.33.59-.41,1.18-.23,1.84.5,1.83,1.47,3.45,2.23,5.17,1.01,2.28,2.57,4.13,4.21,5.94.62.68.73,1.23.16,1.99-.48.64-.5,1.25-.18,1.95.18.39.51.8.32,1.25-.33.8.1,1.32.71,1.88m-10.23,17.95c-.58-.65-1.31-1.11-2-1.62-.43-.32-.83-.46-1.21.07-.2.28-.47.24-.75.11-.26-.12-.33-.32-.32-.61.04-.91-.42-1.23-1.28-.9-.39.15-.81.22-1.13.03-.44-.27-.78-.08-1.12.07-.39-.26-.65-.87-1.12-.57-.32.22-.86.63-.64,1.13.28.65-.08,1.06-.48,1.24-1.53.68-3.02,1.68-4.85.99-.42-.16-1.02-.28-1.26.08-.43.64-.98,1-1.8,1.18.68,1.09.19,1.77-.6,2.34-.45.32-.32.69-.14,1.11.56,1.3,1.52,2.11,2.83,2.61.98.37,1.8,2.11,1.5,2.84-.43,1.04-1.54,1.31-2.21,2.06-.05.06-.23.05-.32,0-.92-.51-1.84,0-2.76,0-.7,0-1.31.64-2.09.27.21-.36.45-.68.59-1.03.65-1.66-.49-3.01-1.75-3.24-1.68-.3-2.66-1.19-3.18-2.89.4-.33,1.04-.46.95-1.22-.14-1.06-.46-1.39-1.59-1.35-.94.03-1.82-.17-2.46-.82-.49-.5-1.02-.82-1.69-.96,0-.18-.02-.32,0-.45.21-1.34-.12-1.67-1.43-1.48-.59.09-.96-.06-.95-.78,0-.8.02-1.65-.54-2.3-1.07-1.26-2.23-2.41-3.01-3.94-.64-1.24-1.21-2.35-.65-3.74.17-.44,0-.88-.31-1.12-.34-.28-.69.07-.92.34-.72.83-1.71,1.33-2.48,2.1-.28.28-.65.48-1.05.37-.77-.22-1.3.18-1.42.8-.24,1.24-1.18,1.16-2.03,1.26-.52.06-.93-.15-1.1-.69-.12-.37-.31-.71-.74-.66-.65.08-.89-.32-1.1-.81-.31-.74-.87-1.06-1.64-.98-1.16.12-1.62.48-1.76,1.42-.16,1.08-.84,1.89-1.32,2.81-.17.32-.58.57-.82.48-.7-.25-1.05.38-1.61.48-.87.16-.61.91-.65,1.49,0,.05-.04.11-.07.15-.43.54-.19,1.1.12,1.5.49.64.26,1.01-.28,1.36-.49.32-.65.72-.44,1.28.31.8.55,1.62.91,2.39.24.53.63,1.05,1.25,1.15.67.1,1.05.52,1.36,1,.55.86,1.02,1.78,1.53,2.67.34.59.5,1.08-.32,1.49-.46.23-.56.73-.38,1.3.21.64.6.37,1,.33.59-.07,1.19-.18,1.76.08,0,.46-.35.68-.52.99-.35.64-.1,1.21.21,1.72.31.52.83.27,1.29.16.51-.13,1.03-.23,1.54-.32.34-.05.72,0,.87.34.16.35.09.71-.28.95-.32.21-.5.55-.58.89-.18.71-.6,1.11-1.27,1.4-.81.35-.89,1.03-.28,1.65.13.13.4.09.42.35-.63,1.15-.08,3.17,1.03,3.94.95.66,2.18.79,3.03,1.64.08.09.27.13.39.11.69-.1,1.39.33,2.1-.08.25-.15.56.07.84.22.72.4,1.45.8,2.31.19.37-.26.87-.36,1.36-.18.56.2.98-.09,1.15-.55.27-.77.79-.76,1.4-.6.43.11.82.07,1.22-.1,1.39-.58,2.78-.96,4.22-.12.42.25,1,.22,1.14-.28.25-.92.84-1.65,1.18-2.51.11-.3.15-.58.03-.89-.09-.24-.05-.48.04-.73.35-.94.03-1.49-.6-2.25-.51-.61-1.19-.57-1.76-.87.17-.52.56-.7.98-.87,1.13-.45,2.38-.55,3.47-1.13.4-.21.88-.25,1.3.17.35.35.8.6,1.34.49.16.36.28.68.55.96.48.5.59,1.11.21,1.75-.2.34-.27.71-.31,1.11-.08.67-.06,1.4-.9,1.72-.29.11-.53.5-.41.84.13.39.53.62.93.59.82-.07,1.44.41,2.08.73,1.54.78,2.25.75,3.55-.46.25-.23.49-.52.86-.37.55.23,1.01,0,1.4-.3.75-.59,1.52-.64,2.43-.46,1.1.21,2.14.1,2.67-1.16.1-.23.35-.48.59-.56.96-.33,1.93-.8,2.91-.85.95-.05,1.85-.41,2.55-.78,1.2-.62,2.56-.77,3.68-1.52.27-.18.59-.09.88.05.38.17.81.23,1.18.39.64.26,1.35.25,1.96.52.99.43,2.26-.18,2.46-1.28.14-.73.93-1.5,1.54-1.36.67.16,1.14-.14,1.59-.51.35-.28.7-.53,1.17-.6.52-.08.89-.67.77-.93-.32-.7.12-1.1.37-1.6.16-.33.26-.65.21-1.04-.19-1.35.11-2.51,1.37-3.24.26-.15.47-.31.49-.62.05-.91.19-1.81-.75-2.48-.41-.29-.91-.81-.61-1.41.47-.92-.86-1.58-.28-2.47,0,0-.08-.07-.12-.11-.76-.76-.84.16-1.15.49-.37.01-.79-.39-1.03-.05-.36.52-.97.75-1.29,1.25-.33.51-.74.62-1.32.66-.96.06-1.95.13-2.6,1.05-.28.39-.62.26-.92-.03-.26-.25-.5-.48-.93-.46-1.02.06-2.11-.22-2.93.73-.47-.71-.09-1.45-.46-2.16Z"/>
  <path class="cls-1" d="m67.55-12.1,2.73,42.59c.26.09.52.21.79.27.79.17.89.45.35,1.09-.15.18-.23.45-.5.52q-.56-.58-1.96-.64c-.81-.03-1.29-.56-1.07-1.29.28-.91-.07-1.71-.38-2.49-.34-.84-.81-.83-1.6-.4-.73.4-1.33.92-1.98,1.42-.73.56-1.51,1.07-2.53,1.14-1.48.11-2.29,1.16-1.85,2.75.12.43.03.76-.3,1.05-.19.17-.38.34-.37.62.01.49-.31.57-.7.74-.98.43-2.2.41-2.87,1.47-.12.19-.34.15-.53.07-.84-.33-1.46-.77-1.59-1.81-.07-.56.17-1.02.14-1.54-.05-.89-.82-1.34-1.19-2.04-.39-.72-.97-1.14-1.83-.61-.15.09-.39.03-.57.08-.8.22-1.62.44-2.19,1.09-.49.55-.98,1.04-1.78,1.08-.71.04-1.48.38-1.97-.51-.09-.16-.38-.26-.59-.28-1.2-.14-2.41-.4-3.59-.31-1.61.12-2.72-.55-3.62-1.73-.59-.77-1.08-1.61-1.61-2.43-.2-.31-.39-.71-.79-.63-.47.09-1.07.23-1.2.78-.18.76-.67,1.04-1.34,1.17-.59.12-.87.43-.99,1.05-.2.99-.58,1.14-1.55.82-1.04-.35-1.42-.15-1.74.88-.13.43-.21.87-.12,1.32.38,1.97,1.44,3.63,2.46,5.31.58.96,1.35,1.75,2.12,2.55.46.48.59,1.09.47,1.69-.26,1.31.17,1.83,1.44,1.61.81-.14,1.15.23,1.22,1.06.05.6.05,1.35.77,1.64.59.24,1.01.63,1.43,1.08.91.96,2.06,1.05,3.11.35.33-.22.69-.31,1.1-.27.41.04.79-.08.98-.49.2-.44.24-.99.96-.94.49.03.99-.29,1.47,0,.67.39,1.28.14,1.8-.21.63-.43,1.3-.7,2-.96.53-.2.92-.52.69-1.21-.1-.3-.07-.64-.1-.98.41-.12.62-.39.68-.84.09-.72.88-.94,1.15-.68.72.68,1.54.27,2.28.5.46.14.8-.01,1.15-.29.65-.51,1.17-.4,1.6.32.55.91.61.92,1.55.29.37-.25.69-.3,1.02.1.47.58,1.17.85,1.81,1.16.47.23.72.49.85,1.01.28,1.15.49,1.16,1.63.91,1.12-.25,2.31-.68,3.43.08.19.13.36.09.52-.09.9-1.01,2.06-1.54,3.38-1.76.22-.04.39-.2.55-.36.76-.73.9-2.07,2.21-2.25.05,0,.1-.12.14-.2.36-.84-.25-2.38-1.13-2.68-.86-.29-1.67-.65-2.41-1.26.69-.93.17-2.46,1.71-2.85.38.84,1.29,1.12,2.14,1.37.96.28,1.25,1.25,2.02,1.75.2.13.75.78.64,1.4-.11.67.26,1.11.78,1.45,1.01.66.97.7.57,1.77-.27.72-.87,1.33-.82,2.14.07.95.57,1.88.01,2.83-.06.1.05.32.11.47.54,1.34,2.75,1.77,3.81.75.18-.17.28-.43.59-.37,1.17.22,2.02-.3,2.72-1.18.16-.2.37-.32.63-.38,1.15-.26,2.17-.88,2.91-1.7.66-.73,1.11-.57,1.74-.2.48.28.95.27,1.21-.26.28-.58.81-.79,1.29-1.12.71-.49,1.68-.75,1.95-1.7.12-.41.35-.74.5-1.12.32-.78,1.1-1.31,1.28-2.13.2-.9.84-1.02,1.43-.77,1.52.65,2.85.12,4.02-.66,2.2-1.46,4.61-2.37,7.1-3.15.55-.17,1.03-.42,1.33-.93.14-.24.38-.33.64-.31.58.05,1.08-.24,1.61-.37.92-.22,1.56-1.01,2.44-1.21,1.17-.27,2.25-.71,3.33-1.17.54-.23,1.27.09,1.66-.42.77-1.03,1.88-1.31,3-1.65.29-.09.63-.2.81-.42.82-.98,1.94-1.51,3.08-1.88,1.44-.47,1.9-1.67,2.47-2.81.35-.69.51-1.55,1.03-2.05.94-.91,1.46-1.99,1.8-3.19.24-.83,1.11-1.33,1.94-1.07.21.07.41.17.64.1,1.22-.32,2.38-.72,3.21-1.79.47-.61,1.05-1.15,1.66-1.62.44-.34.97-.65,1.61-.35.31.15.6-.02.87-.16.62-.33,1.26-.58,1.94-.74.58-.14,1.87-2.12,1.78-2.71-.05-.3-.17-.59-.47-.75-.19-.1-.41-.17-.53-.4.13-.26.28-.53.4-.81.12-.28.18-.59.33-.84.77-1.27.68-1.67-.58-2.37-.45-.25-.87-.43-1.11-1.01-.22-.55-.89-.85-1.47-.4-.58.45-1.31.73-1.7,1.42-.32.55-.89.76-1.45,1.03-1.09.52-2.35.44-3.39,1.08-.11.07-.27.06-.41.05-1.48-.13-2.8.15-3.73,1.43-.15.2-.33.14-.52.12-1.24-.07-1.81.37-2.29,1.54-.17.41-.28,1.08-1.01.97-.97-.15-1.73.26-2.12,1.17-.23.54-.5,1.06-.72,1.59-.25.62-.72.9-1.36.89-.44,0-.78.19-1.15.42-1.12.71-2.01,1.89-3.55,1.78-.09,0-.2.08-.29.14-1.31.81-2.58.62-3.82-.16-.66-.41-1.32-.8-1.97-1.2-.29-.18-.82-.14-.65-.76.14-.51.37-.83.95-.86.55-.03.96-.37,1.04-.92.06-.38.18-.66.44-.94.55-.58.31-1.37.39-2.06.06-.49-.64-.61-1.04-.84-.36-.21-.71-.44-1.06-.65-1.03-.62-2.08-1.16-3.36-.69-.34.13-.83.22-1.19-.07q-1.65-1.34-3.2-.33c-.4-.11-.62-.48-.69-.79-.4-1.81-2.15-1.59-3.31-2.23-.28-.15-.63,0-.82.26-.31.41-.64.52-1.15.39-.37-.09-.8-.12-1.16-.02-.63.17-1.05-.03-1.46-.48-.33-.37-.81-.57-1.28-.33-.58.29-1.06.68-1.8.37-.3-.13-.63.25-.81.6-.22.44-.62.63-1.03.89-.81.51-1.83.75-2.41,1.56-.76,1.06-1.88,1.86-2.2,3.23-.07.32-.36.56-.71.65-1.24.32-2.36,1.13-3.74.89-.15-.03-.32.07-.48.14-.56.24-1.15.3-1.75.39-.86.12-1.71-.2-2.55.11-.6.22-1.23.34-1.88.35-.59,0-.96.33-1.18.89-.36.94-.99,1.67-1.8,2.23-.51.35-.99.31-1.17-.35-.34-1.26-1.29-2.11-2.1-3.01-.77-.85-1-1.72-.76-2.76.11-.45,0-.76-.34-1.02-.85-.65-2.89-.7-3.35.84-.12.39-.34.76-.54,1.12-.33.59-.41,1.18-.23,1.84.5,1.83,1.47,3.45,2.23,5.17,1.01,2.28,2.57,4.13,4.21,5.94.62.68.73,1.23.16,1.99-.48.64-.5,1.25-.18,1.95.18.39.51.8.32,1.25-.33.8.1,1.32.71,1.88m-10.23,17.95c-.58-.65-1.31-1.11-2-1.62-.43-.32-.83-.46-1.21.07-.2.28-.47.24-.75.11-.26-.12-.33-.32-.32-.61.04-.91-.42-1.23-1.28-.9-.39.15-.81.22-1.13.03-.44-.27-.78-.08-1.12.07-.39-.26-.65-.87-1.12-.57-.32.22-.86.63-.64,1.13.28.65-.08,1.06-.48,1.24-1.53.68-3.02,1.68-4.85.99-.42-.16-1.02-.28-1.26.08-.43.64-.98,1-1.8,1.18.68,1.09.19,1.77-.6,2.34-.45.32-.32.69-.14,1.11.56,1.3,1.52,2.11,2.83,2.61.98.37,1.8,2.11,1.5,2.84-.43,1.04-1.54,1.31-2.21,2.06-.05.06-.23.05-.32,0-.92-.51-1.84,0-2.76,0-.7,0-1.31.64-2.09.27.21-.36.45-.68.59-1.03.65-1.66-.49-3.01-1.75-3.24-1.68-.3-2.66-1.19-3.18-2.89.4-.33,1.04-.46.95-1.22-.14-1.06-.46-1.39-1.59-1.35-.94.03-1.82-.17-2.46-.82-.49-.5-1.02-.82-1.69-.96,0-.18-.02-.32,0-.45.21-1.34-.12-1.67-1.43-1.48-.59.09-.96-.06-.95-.78,0-.8.02-1.65-.54-2.3-1.07-1.26-2.23-2.41-3.01-3.94-.64-1.24-1.21-2.35-.65-3.74.17-.44,0-.88-.31-1.12-.34-.28-.69.07-.92.34-.72.83-1.71,1.33-2.48,2.1-.28.28-.65.48-1.05.37-.77-.22-1.3.18-1.42.8-.24,1.24-1.18,1.16-2.03,1.26-.52.06-.93-.15-1.1-.69-.12-.37-.31-.71-.74-.66-.65.08-.89-.32-1.1-.81-.31-.74-.87-1.06-1.64-.98-1.16.12-1.62.48-1.76,1.42-.16,1.08-.84,1.89-1.32,2.81-.17.32-.58.57-.82.48-.7-.25-1.05.38-1.61.48-.87.16-.61.91-.65,1.49,0,.05-.04.11-.07.15-.43.54-.19,1.1.12,1.5.49.64.26,1.01-.28,1.36-.49.32-.65.72-.44,1.28.31.8.55,1.62.91,2.39.24.53.63,1.05,1.25,1.15.67.1,1.05.52,1.36,1,.55.86,1.02,1.78,1.53,2.67.34.59.5,1.08-.32,1.49-.46.23-.56.73-.38,1.3.21.64.6.37,1,.33.59-.07,1.19-.18,1.76.08,0,.46-.35.68-.52.99-.35.64-.1,1.21.21,1.72.31.52.83.27,1.29.16.51-.13,1.03-.23,1.54-.32.34-.05.72,0,.87.34.16.35.09.71-.28.95-.32.21-.5.55-.58.89-.18.71-.6,1.11-1.27,1.4-.81.35-.89,1.03-.28,1.65.13.13.4.09.42.35-.63,1.15-.08,3.17,1.03,3.94.95.66,2.18.79,3.03,1.64.08.09.27.13.39.11.69-.1,1.39.33,2.1-.08.25-.15.56.07.84.22.72.4,1.45.8,2.31.19.37-.26.87-.36,1.36-.18.56.2.98-.09,1.15-.55.27-.77.79-.76,1.4-.6.43.11.82.07,1.22-.1,1.39-.58,2.78-.96,4.22-.12.42.25,1,.22,1.14-.28.25-.92.84-1.65,1.18-2.51.11-.3.15-.58.03-.89-.09-.24-.05-.48.04-.73.35-.94.03-1.49-.6-2.25-.51-.61-1.19-.57-1.76-.87.17-.52.56-.7.98-.87,1.13-.45,2.38-.55,3.47-1.13.4-.21.88-.25,1.3.17.35.35.8.6,1.34.49.16.36.28.68.55.96.48.5.59,1.11.21,1.75-.2.34-.27.71-.31,1.11-.08.67-.06,1.4-.9,1.72-.29.11-.53.5-.41.84.13.39.53.62.93.59.82-.07,1.44.41,2.08.73,1.54.78,2.25.75,3.55-.46.25-.23.49-.52.86-.37.55.23,1.01,0,1.4-.3.75-.59,1.52-.64,2.43-.46,1.1.21,2.14.1,2.67-1.16.1-.23.35-.48.59-.56.96-.33,1.93-.8,2.91-.85.95-.05,1.85-.41,2.55-.78,1.2-.62,2.56-.77,3.68-1.52.27-.18.59-.09.88.05.38.17.81.23,1.18.39.64.26,1.35.25,1.96.52.99.43,2.26-.18,2.46-1.28.14-.73.93-1.5,1.54-1.36.67.16,1.14-.14,1.59-.51.35-.28.7-.53,1.17-.6.52-.08.89-.67.77-.93-.32-.7.12-1.1.37-1.6.16-.33.26-.65.21-1.04-.19-1.35.11-2.51,1.37-3.24.26-.15.47-.31.49-.62.05-.91.19-1.81-.75-2.48-.41-.29-.91-.81-.61-1.41.47-.92-.86-1.58-.28-2.47,0,0-.08-.07-.12-.11-.76-.76-.84.16-1.15.49-.37.01-.79-.39-1.03-.05-.36.52-.97.75-1.29,1.25-.33.51-.74.62-1.32.66-.96.06-1.95.13-2.6,1.05-.28.39-.62.26-.92-.03-.26-.25-.5-.48-.93-.46-1.02.06-2.11-.22-2.93.73-.47-.71-.09-1.45-.46-2.16Z"/>
</svg>