<?xml version="1.0" encoding="UTF-8"?>
<svg id="Layer_1" data-name="Layer 1" xmlns="http://www.w3.org/2000/svg" xmlns:xlink="http://www.w3.org/1999/xlink" viewBox="0 0 646 191.4">
  <defs>
    <style>
      .cls-1 {
        fill: #12100b;
      }

      .cls-1, .cls-2, .cls-3, .cls-4 {
        stroke-width: 0px;
      }

      .cls-2 {
        fill: #afacab;
      }

      .cls-3 {
        fill: none;
      }

      .cls-5 {
        clip-path: url(#clippath-1);
      }

      .cls-4 {
        fill: #fff;
      }

      .cls-6 {
        clip-path: url(#clippath);
      }
    </style>
    <clipPath id="clippath">
      <rect class="cls-3" width="646" height="191.4"/>
    </clipPath>
    <clipPath id="clippath-1">
      <rect class="cls-3" width="646" height="191.4"/>
    </clipPath>
  </defs>
  <g class="cls-6">
    <g>
      <g class="cls-5">
        <g>
          <path class="cls-1" d="m622.1,191.4H23.9c-13.1,0-23.9-10.8-23.9-23.9V23.9C0,10.8,10.8,0,23.9,0h598.2c13.1,0,23.9,10.8,23.9,23.9v143.6c0,13.1-10.8,23.9-23.9,23.9"/>
          <path class="cls-2" d="m622.1,3.8c11.1,0,20.1,9,20.1,20.1v143.6c0,11.1-9,20.1-20.1,20.1H23.9c-11.1,0-20.1-9-20.1-20.1V23.9C3.8,12.8,12.8,3.8,23.9,3.8h598.2Zm0-3.8H23.9C10.8,0,0,10.8,0,23.9v143.6c0,13.2,10.8,23.9,23.9,23.9h598.2c13.2,0,23.9-10.8,23.9-23.9V23.9c0-13.1-10.8-23.9-23.9-23.9"/>
        </g>
      </g>
      <g>
        <g id="_Group_" data-name=" Group ">
          <g id="_Group_2" data-name=" Group 2">
            <g id="_Group_3" data-name=" Group 3">
              <path id="_Path_" data-name=" Path " class="cls-4" d="m130.75,96.83c.12-9.43,5.06-18.13,13.09-23.07-5.09-7.27-13.31-11.71-22.18-11.99-9.33-.98-18.38,5.58-23.13,5.58s-12.17-5.49-20.05-5.32c-10.37.34-19.81,6.09-24.85,15.16-10.75,18.6-2.73,45.95,7.56,60.99,5.15,7.36,11.17,15.59,19.04,15.3,7.71-.32,10.59-4.91,19.89-4.91s11.92,4.91,19.95,4.73c8.27-.13,13.48-7.4,18.45-14.83,3.7-5.25,6.55-11.05,8.44-17.18-9.82-4.15-16.21-13.78-16.22-24.44Z"/>
              <path id="_Path_2" data-name=" Path 2" class="cls-4" d="m115.58,51.88c4.51-5.41,6.73-12.37,6.19-19.39-6.89.72-13.25,4.02-17.82,9.22-4.51,5.14-6.8,11.85-6.35,18.68,6.98.07,13.61-3.06,17.98-8.5Z"/>
            </g>
          </g>
          <g>
            <path class="cls-4" d="m228.17,134.83h-26.3l-6.32,18.65h-11.14l24.91-69h11.57l24.91,69h-11.33l-6.31-18.65Zm-23.58-8.61h20.85l-10.28-30.27h-.29l-10.28,30.27Z"/>
            <path class="cls-4" d="m299.61,128.33c0,15.63-8.37,25.68-20.99,25.68-6.53.34-12.67-3.08-15.83-8.8h-.24v24.92h-10.33v-66.95h9.99v8.37h.19c3.29-5.69,9.45-9.11,16.02-8.89,12.77,0,21.18,10.09,21.18,25.68Zm-10.61,0c0-10.18-5.26-16.88-13.29-16.88s-13.2,6.84-13.2,16.88,5.31,16.92,13.2,16.92,13.29-6.65,13.29-16.92Z"/>
            <path class="cls-4" d="m354.98,128.33c0,15.63-8.37,25.68-20.99,25.68-6.53.34-12.67-3.08-15.83-8.8h-.24v24.92h-10.33v-66.95h9.99v8.37h.19c3.29-5.69,9.45-9.11,16.02-8.89,12.77,0,21.18,10.09,21.18,25.68Zm-10.61,0c0-10.18-5.26-16.88-13.29-16.88s-13.2,6.84-13.2,16.88,5.31,16.92,13.2,16.92,13.29-6.65,13.29-16.92h0Z"/>
            <path class="cls-4" d="m391.57,134.25c.77,6.84,7.41,11.33,16.49,11.33s14.96-4.49,14.96-10.66c0-5.36-3.78-8.56-12.72-10.76l-8.94-2.15c-12.67-3.06-18.55-8.99-18.55-18.6,0-11.9,10.37-20.08,25.11-20.08s24.57,8.18,24.91,20.08h-10.42c-.62-6.89-6.32-11.04-14.63-11.04s-14.01,4.21-14.01,10.33c0,4.88,3.64,7.75,12.53,9.95l7.6,1.87c14.16,3.35,20.04,9.03,20.04,19.13,0,12.91-10.28,20.99-26.64,20.99-15.3,0-25.63-7.89-26.3-20.37h10.57Z"/>
            <path class="cls-4" d="m456.22,91.27v11.9h9.57v8.18h-9.57v27.73c0,4.31,1.92,6.32,6.12,6.32,1.14-.02,2.27-.1,3.4-.24v8.13c-1.89.35-3.81.51-5.74.48-10.18,0-14.16-3.83-14.16-13.58v-28.83h-7.31v-8.18h7.31v-11.9h10.37Z"/>
            <path class="cls-4" d="m471.33,128.33c0-15.83,9.32-25.77,23.86-25.77s23.86,9.95,23.86,25.77-9.23,25.77-23.86,25.77-23.86-9.9-23.86-25.77Zm37.2,0c0-10.86-4.98-17.27-13.34-17.27s-13.34,6.46-13.34,17.27,4.97,17.26,13.34,17.26,13.34-6.36,13.34-17.26h0Z"/>
            <path class="cls-4" d="m527.56,103.17h9.85v8.56h.24c1.37-5.51,6.42-9.31,12.1-9.09,1.19,0,2.38.13,3.54.39v9.66c-1.5-.46-3.07-.67-4.64-.62-5.74-.23-10.59,4.23-10.82,9.97-.02.53,0,1.07.06,1.6v29.84h-10.33v-50.3Z"/>
            <path class="cls-4" d="m600.89,138.7c-1.39,9.13-10.28,15.4-21.66,15.4-14.63,0-23.72-9.8-23.72-25.53s9.13-26.01,23.28-26.01,22.67,9.56,22.67,24.81v3.54h-35.53v.62c-.64,7.21,4.69,13.57,11.89,14.21.54.05,1.09.06,1.64.04,5.01.47,9.74-2.41,11.62-7.08h9.8Zm-34.91-15.01h25.15c.37-6.67-4.74-12.38-11.41-12.75-.31-.02-.62-.02-.93-.02-7.03-.04-12.77,5.63-12.81,12.66,0,.04,0,.07,0,.11Z"/>
          </g>
        </g>
        <g id="_Group_4" data-name=" Group 4">
          <g>
            <path class="cls-4" d="m189.98,49.13c0-10.75,5.72-17.39,14.93-17.39,6.89-.34,12.88,4.66,13.79,11.49h-5.13c-.89-4.03-4.54-6.85-8.66-6.69-5.95,0-9.67,4.85-9.67,12.59s3.72,12.57,9.7,12.57c3.97.3,7.6-2.27,8.64-6.11h5.13c-1.04,6.67-7.03,11.42-13.77,10.91-9.21,0-14.95-6.64-14.95-17.37Z"/>
            <path class="cls-4" d="m224.33,53.18c-.62-6.52,4.15-12.3,10.67-12.93,6.52-.62,12.3,4.15,12.93,10.67.07.75.07,1.51,0,2.26.63,6.52-4.13,12.31-10.65,12.95-6.52.63-12.31-4.13-12.95-10.65-.07-.76-.07-1.53,0-2.3Zm18.52,0c0-5.42-2.44-8.59-6.71-8.59s-6.71,3.17-6.71,8.59,2.41,8.61,6.71,8.61c4.28,0,6.71-3.17,6.71-8.61Z"/>
            <path class="cls-4" d="m254.55,40.68h4.75v3.97h.37c1.28-2.93,4.28-4.72,7.47-4.46,4.48-.34,8.39,3.02,8.72,7.5.05.6.02,1.2-.06,1.8v16.2h-4.94v-14.96c0-4.02-1.75-6.02-5.4-6.02-3.17-.15-5.85,2.3-6,5.47-.01.29,0,.58.03.87v14.64h-4.94v-25.02Z"/>
            <path class="cls-4" d="m292.58,40.2c5.63,0,9.31,2.62,9.79,7.03h-4.74c-.46-1.84-2.25-3.01-5.05-3.01s-4.85,1.31-4.85,3.26c0,1.49,1.26,2.44,3.98,3.06l4.16.96c4.76,1.1,6.99,3.15,6.99,6.83,0,4.71-4.39,7.86-10.36,7.86s-9.83-2.69-10.27-7.12h4.94c.88,2.17,3.13,3.46,5.44,3.12,3.08,0,5.26-1.38,5.26-3.38,0-1.49-1.17-2.46-3.68-3.05l-4.36-1.01c-4.76-1.13-6.96-3.26-6.96-6.98,0-4.44,4.06-7.56,9.72-7.56Z"/>
            <path class="cls-4" d="m309.09,36.5l5.77-7.9h5.79l-6.46,7.9h-5.1Zm.51,4.18h4.92v25.02h-4.92v-25.02Z"/>
            <path class="cls-4" d="m322.2,68.2h5.05c.42,1.81,2.51,2.99,5.84,2.99,4.11,0,6.55-1.95,6.55-5.26v-4.8h-.37c-1.58,2.74-4.56,4.36-7.72,4.2-6.39,0-10.34-4.94-10.34-12.43s3.99-12.64,10.39-12.64c3.24-.11,6.27,1.59,7.86,4.41h.39v-4h4.73v25.23c0,5.72-4.48,9.35-11.56,9.35-6.25,0-10.29-2.8-10.82-7.05Zm17.53-15.33c0-4.98-2.58-8.18-6.78-8.18s-6.64,3.19-6.64,8.18,2.39,8.18,6.64,8.18c4.23,0,6.78-3.17,6.78-8.18Z"/>
            <path class="cls-4" d="m373.54,65.7h-4.76v-3.97h-.39c-1.3,2.96-4.34,4.75-7.56,4.46-4.48.32-8.36-3.05-8.68-7.53-.04-.58-.02-1.16.06-1.73v-16.24h4.95v14.96c0,4.04,1.63,5.97,5.26,5.97,3.12.3,5.89-2,6.19-5.12.04-.39.03-.79-.01-1.18v-14.63h4.94v25.02Z"/>
            <path class="cls-4" d="m402.56,58.94c-1.38,4.72-5.95,7.77-10.84,7.24-6.27.17-11.49-4.79-11.66-11.06-.02-.62.02-1.24.1-1.85-.85-6.32,3.59-12.12,9.9-12.97.54-.07,1.09-.11,1.63-.1,6.96,0,11.16,4.76,11.16,12.61v1.72h-17.67v.28c-.31,3.64,2.4,6.84,6.03,7.14.21.02.42.03.63.02,2.42.29,4.77-.91,5.95-3.03h4.75Zm-17.37-8.06h12.64c.25-3.32-2.25-6.22-5.57-6.47-.19-.01-.39-.02-.58-.01-3.53-.04-6.43,2.78-6.48,6.32,0,.05,0,.11,0,.16Z"/>
            <path class="cls-4" d="m409.72,30.91h4.94v34.79h-4.94V30.91Z"/>
            <path class="cls-4" d="m421.52,53.18c-.62-6.52,4.15-12.3,10.67-12.93,6.52-.62,12.3,4.15,12.93,10.67.07.75.07,1.51,0,2.26.63,6.52-4.13,12.31-10.65,12.95-6.52.63-12.31-4.13-12.95-10.65-.07-.76-.07-1.53,0-2.3Zm18.52,0c0-5.42-2.44-8.59-6.71-8.59s-6.71,3.17-6.71,8.59,2.41,8.61,6.71,8.61c4.28,0,6.71-3.17,6.71-8.61Z"/>
            <path class="cls-4" d="m486.48,58.94c-1.38,4.72-5.95,7.77-10.84,7.24-6.27.17-11.49-4.79-11.66-11.06-.02-.62.02-1.24.1-1.85-.85-6.32,3.59-12.12,9.9-12.97.54-.07,1.09-.11,1.63-.1,6.96,0,11.16,4.76,11.16,12.61v1.72h-17.67v.28c-.31,3.64,2.4,6.84,6.03,7.14.21.02.42.03.63.02,2.42.29,4.77-.91,5.95-3.03h4.75Zm-17.37-8.06h12.64c.25-3.32-2.25-6.22-5.57-6.47-.19-.01-.39-.02-.58-.01-3.53-.04-6.43,2.78-6.48,6.32,0,.05,0,.11,0,.16h0Z"/>
            <path class="cls-4" d="m493.4,40.68h4.75v3.97h.37c1.28-2.93,4.28-4.72,7.47-4.46,4.48-.34,8.39,3.02,8.72,7.5.05.6.02,1.21-.06,1.8v16.2h-4.94v-14.96c0-4.02-1.75-6.02-5.4-6.02-3.17-.15-5.85,2.3-6,5.47-.01.29,0,.58.03.87v14.64h-4.94v-25.02Z"/>
            <path class="cls-4" d="m557.02,58.94c-1.38,4.72-5.95,7.77-10.84,7.24-6.27.17-11.49-4.79-11.66-11.06-.02-.62.02-1.24.1-1.85-.85-6.32,3.59-12.12,9.9-12.97.54-.07,1.09-.11,1.63-.1,6.96,0,11.16,4.76,11.16,12.61v1.72h-17.67v.28c-.31,3.64,2.4,6.84,6.03,7.14.21.02.42.03.63.02,2.42.29,4.77-.91,5.95-3.03h4.75Zm-17.37-8.06h12.64c.25-3.32-2.25-6.22-5.57-6.47-.19-.01-.39-.02-.58-.01-3.53-.04-6.43,2.78-6.48,6.32,0,.05,0,.11,0,.16h0Z"/>
            <path class="cls-4" d="m564.18,30.91h4.94v34.79h-4.94V30.91Z"/>
          </g>
        </g>
      </g>
    </g>
  </g>
</svg>