<?xml version="1.0" encoding="UTF-8"?>
<svg id="Layer_1" data-name="Layer 1" xmlns="http://www.w3.org/2000/svg" viewBox="0 0 887.81 223.47">
  <defs>
    <style>
      .cls-1 {
        fill: #27acdb;
      }

      .cls-1, .cls-2, .cls-3, .cls-4, .cls-5, .cls-6, .cls-7, .cls-8, .cls-9, .cls-10, .cls-11, .cls-12 {
        stroke-width: 0px;
      }

      .cls-2 {
        fill: #f90e0d;
      }

      .cls-3 {
        fill: #f07129;
      }

      .cls-4 {
        fill: #ffd5d5;
      }

      .cls-5 {
        fill: #468486;
      }

      .cls-6 {
        fill: #eb7024;
      }

      .cls-7 {
        fill: #39a900;
      }

      .cls-8 {
        fill: #bbb418;
      }

      .cls-9 {
        fill: #ee231f;
      }

      .cls-10 {
        fill: #358987;
      }

      .cls-11 {
        fill: #80ae49;
      }

      .cls-12 {
        fill: #33aad9;
      }
    </style>
  </defs>
  <path class="cls-7" d="m82.93,170.07c1.76-2.75,3.38-5.4,4.97-8.05,3.85-6.42,7.83-12.76,11.48-19.3,3.37-6.04,7.3-11.76,10.27-18.04,1-2.11,2.86-3.76,3.61-6.09.26-.8,1.24-.62,1.85.31,1.63,2.54,3.26,5.08,4.83,7.66,3.81,6.26,7.6,12.53,11.38,18.81,4.53,7.52,9.04,15.06,13.59,22.57,2.86,4.73,5.76,9.43,8.64,14.14,3.48,5.69,6.98,11.37,10.44,17.07,2.65,4.37,5.26,8.77,7.86,13.17.33.56.56,1.2.75,1.83.28.95.21,1.66-.93,2.19-3.25,1.51-6.44,3.16-9.64,4.79-1.36.69-2.67,1.46-4.23,2.33-2.15-3.53-4.17-6.86-6.2-10.17-2.72-4.44-5.51-8.85-8.16-13.33-1.7-2.88-3.13-5.92-4.82-8.8-2.38-4.07-4.91-8.06-7.34-12.11-2.77-4.61-5.48-9.26-8.25-13.87-1.3-2.16-2.6-4.32-4.04-6.38-2.58-3.69-8.17-1.96-9.67,1.01-2.46,4.85-5.37,9.47-8.12,14.17-2.3,3.93-4.62,7.85-6.96,11.76-1.46,2.44-2.97,4.86-4.43,7.3-2.69,4.47-5.32,8.97-8.05,13.41-3.04,4.94-5.34,10.3-8.74,15.02-1.28,1.77-1.15,1.77-3.14.83-3.17-1.5-6.39-2.89-9.58-4.36-1.25-.58-2.46-1.25-3.92-1.99,1.17-2.15,2.21-4.17,3.35-6.13,4.07-6.95,8.16-13.89,12.28-20.81,1.66-2.79,3.48-5.49,5.09-8.31,1.97-3.46,3.8-7.01,5.85-10.62h-.02Z"/>
  <path class="cls-7" d="m58.2,180.82c-1.64,2.65-3.25,5.1-4.69,7.65-2.29,4.04-4.45,8.15-6.68,12.22-1.01,1.86-2.04,3.71-3.18,5.78-.82-.56-1.55-.93-2.12-1.47-3.14-2.95-6.23-5.95-9.35-8.92-1.98-1.89-2-1.89-.64-4.19,2.94-4.98,5.96-9.91,8.82-14.93,2.95-5.17,5.69-10.45,8.62-15.64,2.52-4.46,5.18-8.84,7.75-13.28,3.47-6,6.93-12.01,10.37-18.03,1.18-2.05,2.45-4.07,3.41-6.23,1.15-2.58.18-5.64-3.59-6.56-2.15-.52-4.42-.75-6.63-.75-19-.06-38-.03-57-.03H0v-17.2h104.91c-.52,1.05-.89,1.91-1.35,2.71-2.49,4.3-5,8.58-7.5,12.87-3.52,6.04-7.04,12.08-10.53,18.13-2.96,5.15-6.03,10.24-8.76,15.5-3.45,6.66-7.64,12.88-11.24,19.45-2.35,4.28-4.81,8.5-7.32,12.9v.02Z"/>
  <path class="cls-7" d="m167.16,139.47c1.3,2.25,2.48,4.36,3.72,6.43,4.09,6.87,8.25,13.7,12.27,20.6,2.75,4.71,5.29,9.54,7.96,14.3.96,1.7,2.03,3.34,3.04,5,1.31,2.16,2.61,4.32,3.94,6.47.62,1,.89,1.87-.12,2.83-3.75,3.58-7.46,7.21-11.43,11.04-.86-1.14-1.78-1.99-2.26-3.05-1.56-3.42-3.73-6.47-5.65-9.67-3.14-5.25-6.16-10.57-9.26-15.85-2.72-4.63-5.47-9.25-8.21-13.87-3.16-5.32-6.35-10.63-9.48-15.97-4.03-6.87-8-13.78-12.03-20.65-2.83-4.83-5.7-9.65-8.58-14.45-2.05-3.42-4.18-6.8-6.2-10.24-.53-.9-.8-1.96-1.2-2.96,1.96-.55,100.08-.79,105.49-.3.48,1.72.63,12.47.2,16.95-.91.03-1.87.08-2.83.08h-59.74c-1.57,0-3.04.15-4.56.82-3,1.33-4.84,5.32-2.99,8.16,2.31,3.55,4.25,7.34,6.31,11.05.56,1,1.01,2.07,1.61,3.27h0Z"/>
  <path class="cls-7" d="m577.19,53.65v50.26c-.98.06-1.63.13-2.28.13-6,0-12-.03-17.99.03-1.51.02-2.32-.5-3.03-1.89-2.98-5.78-6.32-11.38-9.14-17.23-2.66-5.53-6.11-10.64-8.33-16.41-1.16-3.02-2.91-5.8-4.31-8.73-1.76-3.68-3.43-7.41-5.15-11.11-.29-.62-.67-1.2-1.31-1.74-.65,3.13-.18,6.2-.15,9.27.03,3.16.15,6.33.18,9.49.03,3.17,0,6.33,0,9.5v28.49c-.78.15-1.25.32-1.71.32-3.33.02-6.66.04-10,0-1.78-.02-1.99-.26-2.09-2.01-.03-.58-.01-1.17-.01-1.75v-63.98c.02-2.74.07-2.81,2.81-2.81,6,0,12,.04,17.99-.03,1.67-.02,2.52.39,3.27,2.13,1.98,4.57,4.34,8.98,6.62,13.41,3.03,5.88,6.26,11.66,9.2,17.59,3.69,7.45,7.17,15.01,10.76,22.51.39.81.86,1.57,1.35,2.44.83-.78.54-1.74.53-2.58-.06-17.33-.14-34.65-.21-51.98v-3.34h13v20.02h0Z"/>
  <path class="cls-7" d="m654.51,103.99h-22.56c-1.51-3.21-3.01-6.52-4.62-9.77-1.11-2.25-2.35-4.45-3.54-6.66-2.21-4.12-4.5-8.2-6.61-12.36-2.96-5.84-5.81-11.74-8.68-17.63-1.78-3.64-3.52-7.3-5.54-11.5v57.8h-13.22V33.81c.79-.11,1.65-.31,2.51-.32,6-.03,11.99.05,17.99-.06,1.71-.03,2.49.75,3.17,2.1,2.38,4.74,4.8,9.46,7.24,14.16,2.04,3.91,4.44,7.66,6.14,11.71,2.6,6.19,5.94,12.01,8.67,18.14,1.64,3.69,3.47,7.3,5.25,11.01,1.11-.32.82-1.28.8-2.03-.09-4.49-.32-8.99-.33-13.48-.05-13.24-.03-26.49-.03-39.73,0-.49.09-.98.15-1.56.62-.1,1.18-.27,1.74-.27,3.41-.02,6.83-.03,10.24,0,.45,0,.9.28,1.38.81.03,3.09.05,5.81.02,8.53-.03,2.13-.11,4.26-.35,6.44-1.18.9-.75,1.98-.62,3.23,0,2.14,0,4.05-.1,6.14-.39.99-.7,1.81-1.04,2.8-.88,2.13-2.12,4.01-2.48,6.05-1.17,6.49-.42,12.67,3.86,18.06.38.48.74,1.14.73,1.72-.01,5.56-.11,11.13-.17,16.69v.04Z"/>
  <path class="cls-7" d="m394.84,100.37c-3.59-3.1-4.97-7.05-5.27-11.44-.16-2.31-.03-4.63-.03-7.13h12.55c.3,2.07.63,4.19.92,6.32.36,2.7,1.14,3.47,3.76,4.19,6.32,1.72,12.73.89,19.1.75,1.35-.03,2.71-.7,4.01-1.22,1.1-.44,1.72-1.31,2.15-2.49,1-2.74,1.07-5.55.82-8.36-.22-2.54-1.2-4.89-3.83-5.78-1.71-.57-3.59-.65-5.4-.88-.9-.11-1.83-.02-2.75-.09-4.89-.37-9.82-.51-14.65-1.23-3.29-.49-6.61-1.15-9.74-2.61-3.1-1.45-4.78-3.88-5.78-6.89-1.72-5.17-1.38-10.54-.91-15.82.25-2.81,1.27-5.57,2.84-8.04,1.64-2.57,4.17-3.96,6.91-4.81,4.45-1.37,9.04-2.08,13.71-2.08h8.5c4.59,0,9.11.66,13.46,2.06,4.28,1.37,7.08,4.18,8.39,8.73,1,3.47.77,6.86.87,10.49h-13.22c-.09-.92-.1-1.74-.27-2.52-.37-1.68-.64-3.43-1.32-5-.6-1.39-1.96-2.09-3.55-2.3-5.66-.75-11.32-.66-16.94.11-2.64.36-4.43,1.89-5.3,4.72-.99,3.2-.75,6.17.19,9.25.73,2.4,2.77,2.99,4.78,3.28,3.29.48,6.62.65,9.94.94,4.55.4,9.14.54,13.63,1.27,3.26.53,6.53,1.41,9.31,3.52,2.22,1.68,3.07,4.08,3.54,6.54.56,2.92.86,5.95.84,8.92-.03,4.23-.44,8.48-1.76,12.51-1.12,3.4-3.58,5.63-7.05,6.88-5.67,2.03-11.55,2.15-17.43,2.22-4.66.06-9.34.01-13.98-.4-3.83-.34-7.62-1.22-11.05-3.6h0Z"/>
  <path class="cls-7" d="m667.52,133.65h-302.24c-2.17,0-3.18-1.23-3.03-3.7.54-.13,1.14-.34,1.76-.41.66-.07,1.33-.02,2-.02h486.23c1.13,0,2.25.12,3.59.2-.35,1.44-.62,2.54-.95,3.91h-187.36v.02Z"/>
  <path class="cls-7" d="m852.39,78.25c1.76,5.23,3.5,10.26,5.21,15.29,1.13,3.32,2.22,6.66,3.33,9.99-1.9.62-10.33.77-14,.28-1.41-4.24-2.86-8.57-4.37-13.08h-30.2c-1.48,4.49-2.94,8.91-4.36,13.22h-14.1c3.5-12.05,7.96-23.58,11.68-35.35,3.69-11.68,7.62-23.29,11.5-35.11h6.59c3.83,0,7.66-.02,11.49,0,2.25,0,2.16.07,2.86,2.2,1.02,3.11,2.19,6.18,3.25,9.28.58,1.7,1.25,3.4,1.59,5.16.64,3.35,2.06,6.42,3.13,9.61,1.17,3.5,2.3,7.01,3.5,10.5.9,2.62,1.9,5.22,2.89,8.02m-21.44-23.35c-.89-2.9-1.75-5.82-2.71-8.7-.13-.4-.74-.63-1.29-1.07-.59,1.9-1.07,3.46-1.55,5.02-.74,2.36-1.45,4.73-2.24,7.07-1.18,3.49-2.44,6.96-3.62,10.45-1.13,3.34-2.21,6.69-3.26,10.05-.25.81-.27,1.7-.41,2.65h23.26c-.19-1.13-.26-2.11-.54-3.03-.54-1.79-1.21-3.55-1.78-5.33-.38-1.18-.61-2.41-1.02-3.58-1.56-4.39-3.16-8.76-4.84-13.53Z"/>
  <path class="cls-7" d="m479.52,44.91h-12.1c0,5.91-.05,11.68.05,17.65h32.52v10.29h-32.43v19.33h34.54c.16,3.96.07,7.73.04,11.68h-48.15V33.9c1.8-.52,43.78-.7,47.97-.17v3.07c0,1.92.02,3.83,0,5.75-.03,2.25-.11,2.32-2.45,2.36h-20,.01Z"/>
  <path class="cls-7" d="m731.55,43.54c-.44-1.83-.84-3.68-1.33-5.5-.36-1.33-.84-2.63-1.28-3.98,1.57-.97,3.09-.48,4.53-.56,1.49-.08,3-.02,4.5-.02h4.6c2.95,6.2,4.4,12.86,6.66,19.23,2.29,6.47,3.99,13.16,6.31,19.63,2.27,6.35,3.35,13.07,5.75,19.38.16-.04.32-.08.48-.11,2-6.48,3.96-12.98,6-19.45,2.05-6.49,4.02-13.02,6.32-19.43,2.29-6.38,3.77-13.04,6.49-19.15h13.28c.59,2.28-.83,4.03-1.36,5.94-.73,2.6-1.68,5.13-2.54,7.69-1.19,3.58-2.42,7.14-3.57,10.74-1.35,4.23-2.61,8.48-3.93,12.71-1.22,3.9-2.48,7.8-3.71,11.7-.69,2.2-1.32,4.42-2.03,6.61-1.2,3.66-2.44,7.31-3.68,10.96-.47,1.38-.97,2.75-1.46,4.12-6.41,0-12.57.02-18.73-.01-1.7,0-1.85-.32-2.29-1.96-.77-2.85-1.67-5.67-2.53-8.5-.65-2.13-1.29-4.25-1.99-6.36-.9-2.72-1.88-5.41-2.76-8.14-.76-2.35-1.42-4.73-2.12-7.1-.35-1.18-.7-2.35-1.11-3.9-.13-1.34-.24-2.31-.26-3.29-.03-1.65.35-3.4-.06-4.94-.88-3.34-2.41-6.43-4.86-8.98-.51-.53-.82-1.25-1.23-2.15-.7-1.89-1.38-3.53-2.07-5.17h-.02Z"/>
  <path class="cls-7" d="m121.71,49c-2.07.38-3.94.92-5.82.99-5.72.22-10.82-1.74-15.44-4.97-3.47-2.43-5.99-5.66-7.82-9.48-2.08-4.36-3.21-8.96-2.37-13.69,1.09-6.15,3.78-11.5,8.66-15.77,3.35-2.93,7.21-4.7,11.32-5.58,3.41-.73,7.03-.7,10.59.39,2.69.83,5.37,1.66,7.63,3.27,4.53,3.22,8,7.24,9.78,12.74,1.52,4.69,1.58,9.43.62,14-1.07,5.13-3.81,9.59-8.11,13-2.72,2.16-5.72,3.67-9.04,5.1Z"/>
  <path class="cls-7" d="m155.98,57.87h4.96c.11.91.27,1.7.28,2.5.02,9.49.02,18.98,0,28.47,0,.64-.11,1.29-.19,2.1-.85.07-1.58.17-2.3.17-4.83.01-9.66-.05-14.49.04-1.75.03-2.98-.7-4.02-1.95-3.08-3.65-6.14-7.33-9.24-10.97-2.44-2.86-4.92-5.67-7.77-8.95-.34,2.72-.15,4.99-.18,7.24-.03,2.33,0,4.66,0,6.99v7.22c-.81.14-1.51.35-2.21.36-3.16.04-6.33.04-9.49,0-2.29-.03-2.62-.37-2.62-2.6,0-9.32,0-18.65,0-27.97,0-2.37.32-2.66,2.81-2.67,4.66,0,9.32.03,13.99-.02,1.33-.02,2.33.38,3.22,1.37,3.68,4.14,7.44,8.21,11.12,12.35,2.2,2.49,4.31,5.07,6.47,7.62,1.15-.66.78-1.58.79-2.32.03-5.41,0-10.82.02-16.23,0-2.53.21-2.74,2.66-2.76,2-.02,4,0,6.24,0h-.05Z"/>
  <path class="cls-7" d="m37.74,84.69c.98-.31,1.73-.63,2.5-.9.91-.32.93-1.09.93-1.83,0-.87-.51-1.35-1.32-1.58-1.27-.36-2.51-.86-3.8-1.12-2.27-.46-4.58-.72-6.86-1.18-2.49-.5-4.94-1.24-7.45-1.68-2.15-.38-4.1-1.15-6.04-2.11-5.23-2.58-5.67-9.78-.93-12.88,3.49-2.29,7.2-3.25,11.08-3.5,5.31-.34,10.66-.19,15.99-.05,2.9.07,5.77.78,8.36,2.08,2.47,1.25,4.4,3.15,4.78,6.15.13,1.05-.22,1.6-1.31,1.6h-12.09c-.66-2.5-2.45-3.07-4.69-3.3-2.42-.25-4.8-.39-7.2.08-.41.08-.94,0-1.21.22-.57.51-1.22,1.1-1.43,1.79-.29.95.74,1.26,1.37,1.46,1.72.54,3.49.99,5.26,1.33,3.8.74,7.69,1.16,11.42,2.16,2.82.75,5.64,1.7,8.2,3.3,4.13,2.59,4.59,9.35.77,11.98-3.03,2.09-6.18,3.38-9.81,4.07-5.14.97-10.28.8-15.43.7-3.22-.06-6.5-.33-9.63-1.06-3.04-.71-5.73-2.53-7.38-5.27-.76-1.26-.73-2.99-1.11-4.75,2.62-.5,4.93-.21,7.21-.26,2.24-.05,4.49-.01,6.58-.01.67,1.23,1,2.63,1.89,3.25,1.22.85,2.7,1.5,4.38,1.4,2.24-.13,4.5-.05,6.97-.08h0Z"/>
  <path class="cls-7" d="m72.52,57.87h28.88c.54,2.47.44,4.81.08,7.42h-23.71v4.88h22.22v7.1c-1.02.07-1.91.18-2.81.18-5.49.02-10.99,0-16.48,0-3.1,0-3.1.01-3.1,3.22v2.95h24.95v7.04c-1.75.57-31.59.94-37.66.45-.71-.06-1.4-.38-2.13-.59-.04-.81-.09-1.46-.1-2.12v-27.47c0-.33,0-.67,0-1,.1-1.61.47-2.03,2.12-2.06,2.5-.05,5,0,7.74,0h0Z"/>
  <path class="cls-7" d="m214.25,77.87c1.82,2.73,3.58,5.28,5.27,7.87,1.02,1.55,1.94,3.16,3.03,4.95-.64.18-1.07.4-1.51.41-4.25.03-8.49.02-12.74.02-1.34,0-2.41-.34-2.92-1.79-1.13-3.2-3.27-4.41-6.8-4.17-5.06.34-10.16.24-15.23.02-2.49-.11-4.09.84-4.79,2.97-.84,2.58-2.53,3.11-4.93,3-2.99-.13-6-.02-8.99-.05-.48,0-.95-.16-1.8-.3.34-.73.51-1.32.84-1.8,6.5-9.43,12.49-19.21,19.43-28.35.24-.32.44-.69.6-1.06.52-1.21,1.42-1.73,2.73-1.73,4.33.02,8.66.02,12.99,0,.97,0,1.74.2,2.33,1.1,4.11,6.26,8.26,12.5,12.48,18.91m-19.48-8.22c-.75-1.03-1.5-2.07-2.44-3.37-2.78,3.68-4.84,7.57-7.33,11.34,2.7.57,11.75.51,13.88-.11-1.35-2.53-2.67-5.01-4.11-7.85h0Z"/>
  <path class="cls-7" d="m293.9,175.65V2.4c.06-2.2.1-2.24,2.74-2.12.08.6.2,1.24.25,1.88.04.5,0,1,0,1.5v216.25c0,.75.13,1.54-.06,2.24-.15.53-.78,1.37-1.1,1.32-.62-.08-1.41-.56-1.69-1.1-.31-.61-.14-1.46-.14-2.21v-44.5h0Z"/>
  <path class="cls-8" d="m662.94,36.63c3.63-4.21,8.32-6.92,13.27-9.22.95-.44,2.09-.5,3.12-.77,6.08-1.61,12.32-2.05,18.48-1.18,4.5.63,9.14,1.39,13.37,3.96.18.11.21.12.21.12.12.08.24.16.54.57,1.17.89,2.16,1.44,3.29,2.04.53.18.91.33,1.42.58.4.42.65.73.93,1.02,2.4,2.45,4.88,4.81,6.28,8.09.69,1.61,1.83,3.03,2.79,4.71.64,2.95,1.61,5.71,1.75,8.51.19,3.88.77,7.87-.81,11.84-.33.89-.64,1.6-1.02,2.47-1.1,1.44-2.04,2.8-3.15,4-2.67,2.89-5.98,4.46-9.96,4.77-2.8.21-5.38-.53-8.06-1.35-.68-1.09-1.51-1.68-2.78-1.81-1.45-1.3-2.82-2.45-4.2-3.6-.41.14-.82.28-1.39.48-.17-1.16-.41-2.14-.44-3.11-.03-.92.14-1.97,1.4-1.89.94.06,2.22.02,1.85,1.71-.05.25.35.7.64.91,1.66,1.18,3.18,2.6,5.33,3.17,1.33.51,2.59.91,4.07,1.33,6.98,1.3,11.53-5.03,13.01-10.04,1.01-3.4.49-6.96-.06-10.41-.2-1.22-.47-2.63-1.77-3.59,0-2.17-1.34-3.63-2.05-5.5-1.87-2.68-3.47-5.39-6.03-7.28-1.37-1.01-2.51-2.41-4.41-2.73-.41-.27-.76-.45-1.15-.61-.03,0-.09-.02-.19-.16-1.43-.7-2.75-1.3-4.11-1.82-4.55-1.72-9.2-2.92-14.35-2.68-1.93-.02-3.63-.11-5.32,0-.71.05-1.4.53-2.3.84-5.15.95-9.79,2.67-14.06,5.37-1.22.78-2.48,1.5-3.86,2.33-.13-.46-.22-.75-.31-1.05l.03-.02Z"/>
  <path class="cls-3" d="m654.7,103.98c-.12-5.56-.03-11.12-.02-16.68,0-.58-.36-1.25-.73-1.72-4.28-5.39-5.03-11.58-3.86-18.06.37-2.04,1.61-3.92,2.67-6.07,1.26.24.82,1.16.61,1.7-1.06,2.73-.7,5.55-.66,8.33.03,1.83.73,3.52,1.54,5.19.32-.91.43-1.79.44-2.67.03-2.15-.05-4.3.04-6.45.03-.76.43-1.5.71-2.06.38,1.01.71,1.83.85,2.71-.38.4-.74.75-.74,1.09-.05,3.08-.04,6.16-.02,9.24,0,.4.03.92.27,1.19,1.64,1.85,3.24,3.76,5.05,5.44,1.63,1.5,3.42,2.88,5.3,4.04,1.8,1.12,3.78,1.98,5.75,2.77.55.22,1.36-.18,2.25-.3.6,0,1,.02,1.34.17-.4.36-.73.58-1.06.81,2.13.89,4.23.97,6.04,1.74,2.03.87,4.04.84,6.08.79,3.78-.08,7.58.43,11.33-.85,1.29-.44,2.72-.49,4.06-1.38,1.28.59,2.36,1.26,3.49,1.83.89.45,1.84.8,2.57,1.26-3,1.21-5.77,2.45-8.62,3.47-1.92.68-3.96,1.49-5.93,1.46-5.78-.09-11.64,1-17.32-.9-2.42-.81-4.8-1.73-7.22-2.52-2.02-.65-3.57-2.44-6.08-2.38-1.64,0-2.53.62-2.68,1.85-1.06-.63-.67-1.53-.46-2.54.77-.17,1.54-.35,2.47-.56-2.13-1.75-4.12-3.39-6.34-5.2-.11.77-.27,1.38-.27,1.99-.02,3.67.02,7.33-.04,11-.01.75-.4,1.5-.8,2.25v.02Z"/>
  <path class="cls-11" d="m660.22,97.23c.1-1.35.98-1.96,2.64-1.85.12,1.74.86,2.62,2.47,2.99.28.2.47.28.75.46.38.18.67.24,1.03.44.33.28.59.42.96.65.38.13.65.18,1,.37.34.3.6.47.97.7.38.11.64.14.95.32.38.31.72.47,1.21.69.37.08.58.09.89.26,1.38.66,2.66,1.18,4.12,1.74.54.09.9.12,1.41.28,1.03.34,1.91.56,2.8.78,2.24.54,4.46,1.31,6.74,1.57,7.44.84,14.78.29,21.81-2.45,3.68-1.44,7.22-3.22,9.93-6.52,1.02-.08,1.85-.05,2.64-.2,1.98-.38,3.94-.83,5.9-1.26-.93,1.11-1.87,2.21-2.8,3.32-2.17,2.6-4.69,4.79-7.44,6.75-2.71,1.94-5.69,3.2-8.77,4.4-3.49,1.36-7.15,2.07-10.77,2.58-3.98.55-8.05.61-12.11-.37-2.72-.65-5.41-1.35-8.09-2.17-3.68-1.12-7.06-2.71-10.1-5.04-1.69-1.3-3.41-2.56-5.11-3.84-.06-.05-.08-.15-.14-.2-.69-.56-2.01-.02-2.29-1.28-.22-.97-.36-1.96-.6-3.12h0Z"/>
  <path class="cls-1" d="m728.56,96.06c-2.08.57-4.04,1.02-6.02,1.4-.79.15-1.62.13-2.9.13-1.17,0-1.87.05-2.62.1-.05,0,0,.14-.15.24-.37.14-.61.17-.91.03-.74-.35-1.4-.68-2.07-.68-1.38,0-2.67-.22-4.03-.98-.68-.11-1.17-.2-1.66-.29-.92-.39-1.87-.74-2.76-1.2-1.13-.58-2.22-1.24-3.53-2.01-2.14-1.49-4.06-2.84-6-4.34-.71-.97-1.4-1.79-2.24-2.74-2.1-3.87-4.05-7.61-6.03-11.4h-2.42c.74-2.61,1.42-5.01,2.14-7.57,2.37,1.4,4.45,2.62,6.77,3.99-.85.67-1.54,1.2-2.11,1.65,1.85,4.88,4.75,8.71,7.76,12.47.37.46,1.11.64,1.72,1.09.63.63,1.22,1.11,1.92,1.73,1.12.78,2.11,1.42,3.12,2.2.3.27.6.41,1.06.6.41.05.64.03,1.05.12,1.88.55,3.59,1.01,5.5,1.51,1.09-.04,1.99-.14,3.01-.1,1.98,1.1,3.85.41,5.92.21.97,0,1.73-.09,2.68-.16,3.5-.38,6.07-2.06,8.13-4.59,1.48-2.08,2.78-4.29,3.1-6.83.31-2.5.26-5.04.81-7.56.39,1.75,1,3.47,1.14,5.24.57,6.85-2.41,12.01-7.89,15.9-.79.56-1.57,1.13-2.47,1.84h-.02Z"/>
  <path class="cls-11" d="m656.49,68.14c-.33-.82-.66-1.64-1.08-2.81-.39-2.37-1.47-4.26-1.2-6.41.02-.12-.34-.29-.52-.44.01-1.92.03-3.83.18-6.05.31-1.27.47-2.23.64-3.19.06-2.13.15-4.26.17-6.39.03-2.72.01-5.44.08-8.3.19.27.42.68.43,1.09.04,2.4,0,4.8.03,7.2,0,.78-.17,1.65.61,2.24,1.24-1.29,2.42-2.51,3.74-3.91.27-.26.34-.36.37-.49.1,0,.2-.02.61-.1,2.84-1.4,5.5-2.11,8.49-1.72.74.29,1.37.45,2.19.63.98.07,1.76.11,2.6.32,1.97,1.13,3.87,2.08,5.88,3.15,1.01.83,1.92,1.54,2.85,2.41,1.38,1.74,2.52,3.54,4.77,4.44,1.1,1.4.8,2.74.51,4.11-1.21.12-2.1-.14-2.35-1.36-.22-1.08-.95-1.47-1.98-1.77-1.44-1.71-2.6-3.57-5.04-3.89-.93-1.21-2.06-1.78-3.51-2.06-2.88-1.67-5.76-1.54-8.91-.7-3.74.5-6.78,4.64-6.55,8.81-.33,1.03-.88,1.85-.93,2.7-.13,1.98-.12,3.98.04,5.95.05.58.8,1.1,1.23,1.84-.08,1.33-.52,2.59-.18,3.59,1.13,3.32,2.55,6.53,3.83,9.8,1.02,2.61,2.92,4.61,4.57,6.95-.05.43-.07.68-.25.87-2.49-2.36-4.82-4.67-7.16-6.99-.2.74-.41,1.52-.74,2.75-.54-1.4-.88-2.29-1.1-3.29.93-2.02.89-2.22-.73-3-.66-2.01-1.14-4-1.61-5.99h.02Z"/>
  <path class="cls-10" d="m722.85,92.15c-1.86.28-3.72.97-5.64-.3.69-1.28,1.5-2.22,2.15-3.26,1.97-3.16,4.08-6.27,5.75-9.59,1.18-2.36,2.71-4.72,2.68-7.69.43-1.6.68-3.1,1.08-4.7.28-1.17.51-2.22.53-3.28.05-3.7.02-7.4.02-11.1,2.76-.19,5.67,2.18,5.79,4.91.09,2.15.03,4.3.03,6.45-.05.9-.1,1.79-.29,3.06-.85,3.11-1.58,5.85-2.28,8.6-.42,1.65-.79,3.31-1.36,4.97-.96,1.29-1.75,2.57-2.62,4.02-2,2.75-3.92,5.33-5.84,7.91h0Z"/>
  <path class="cls-7" d="m645.17,206.31c-3.25,2.62-6.66,3.12-10.24,1.3-1.4-.71-2.67-1.73-2.31-3.69.76-.39,1.27-.48,1.91.33,1.97,2.46,5.2,3,7.97,1.47,1.58-.87,2.25-2.8,1.66-4.95-1.22.43-2.4.93-3.64,1.28-3.47.97-6.83-1.17-8.1-4.57-1.1-2.94-.82-5.66.17-8.45.72-2.03,3.38-3.89,6.67-3.8.82.02,1.65.2,2.46.39.9.21,3.17.25,4.04,0,.15-.04.33,0,.49.06.15.05.28.15.68.37v2.56c0,4.08-.04,8.16,0,12.24.02,1.98-.57,3.71-1.77,5.47m-4.6-6.07c1.27-.05,2.15-.76,2.86-1.73,1.33-1.81,1.75-3.85,1.55-6.05-.3-3.45-1.89-5.06-5.28-5.33-3.13-.25-5.04,1.3-5.34,4.4-.11,1.15-.05,2.31-.07,3.47-.05,3.22,2.36,5.87,6.28,5.24h0Z"/>
  <path class="cls-7" d="m460.72,143.34c-1.22.55-2.18.98-2.93,2.02-1.84,2.54,0,4.85,2.11,5.65,1.46.55,3.04.78,4.56,1.16.64.16,1.34.25,1.91.56,1.8.94,3.81,1.76,4.13,4.14.33,2.45.22,5.01-2.04,6.45-2.4,1.53-5.16,2.28-8.09,1.46-.48-.13-.94-.34-1.41-.49-3.23-.97-4.64-2.81-4.82-6.29,2.01-.74,2.27-.61,2.81,1.16.59,1.95,1.79,3.29,3.93,3.48,1.15.1,2.33.13,3.49.03,2.12-.18,3.92-2.05,4.01-4.01.08-1.83-1.27-3.31-3.44-3.95-2.44-.72-4.87-1.5-7.28-2.3-1.76-.59-2.61-1.9-2.77-3.72-.41-4.65,2.17-7.4,6.89-7.56,2.9-.1,5.42.5,7.06,3.07.64,1,.99,2.19,1.61,3.61-1.01.16-1.76.29-2.65.43-.47-2.06-1.16-3.87-3.2-4.48-1.15-.34-2.42-.33-3.85-.45l-.03.03Z"/>
  <path class="cls-7" d="m384.82,192.15v-12.62c.83-.13,1.46-.32,2.08-.3,2.82.09,5.64.29,8.46.37,2.6.07,4.42,1.57,5.5,3.6,1.61,3.02,2.41,6.34,1.51,9.82-.39,1.51-.72,3.05-1.34,4.47-1.11,2.56-3.29,3.93-5.97,4.1-3.31.21-6.64.05-10.25.05v-9.51m14.53-7.35c-.93-1.39-1.91-2.87-3.71-2.97-2.79-.16-5.59-.04-8.51-.04v18.08c.84.05,1.56.14,2.29.14,1.58,0,3.21.2,4.73-.13,2.94-.63,5.09-1.64,5.7-5.55.48-3.05.53-6.12-.49-9.53h-.01Z"/>
  <path class="cls-7" d="m551.08,154.9c1.08-.05,2.16-.05,3.24-.16,1.46-.15,2.35-1.1,2.31-2.36-.04-1.37-.83-2.2-2.32-2.39-.66-.08-1.33-.08-1.99-.06-1.46.04-2.67.31-3.32,1.96-.54,1.38-1.23,1.39-2.61.53,1.3-5.21,6.53-5.43,9.92-4.2,2.15.78,2.89,2.85,2.97,5.04.08,1.99.01,3.99.02,5.98,0,1.44-.33,3,1.32,3.92.16.09.08.6.13,1.11-.77,0-1.65.27-2.03-.05-2.03-1.69-3.88-.22-5.75.2-1.35.31-2.58.3-3.9-.09-2.38-.7-3.63-2.1-3.7-4.34-.05-1.7,1.36-3.52,3.73-4.36.9-.26,1.44-.5,1.99-.74m3.49,1.62c-.91.05-1.83.2-2.74.14-1.3-.09-2.21.61-3.07,1.37-1.39,1.25-.91,3.99.89,4.46,1.83.48,3.8.67,5.42-.76,1.74-1.54,1.96-3.43,1.21-5.65-.5.14-.89.25-1.72.44h0Z"/>
  <path class="cls-7" d="m507.48,148.08c1.33-.16,2.5-.49,3.61-.34,4.39.6,6.87,4.24,6.05,8.9h-10.92c-.91,2.31,0,4.09,1.4,5.51.57.58,1.84.62,2.8.66,1.84.06,3.42-.4,4.08-2.48.17-.54.79-1.05,1.33-1.32.27-.13.82.33,1.32.56-.56,1.87-1.19,3.54-3.04,4.3-2.29.94-4.65,1.25-7.01.24-1.52-.65-2.49-1.95-3.06-3.38-1.97-4.95-.86-9.57,3.43-12.65m4.07,1.91c-.58-.04-1.16-.14-1.73-.11-2.77.15-4.08,1.88-3.62,4.76h8.71c-.38-2.09-.72-3.93-3.36-4.65h0Z"/>
  <path class="cls-7" d="m809.13,197.59c.13.95.1,1.75.44,2.33.31.52,1.56.21,1.43,1.35-2.21.9-2.55.82-4.1-.88-1.4.51-2.78.96-4.11,1.52-1.53.64-2.98.14-4.39-.27-1.83-.53-2.89-2.33-2.85-4.4.04-1.99,1.08-3.41,2.93-4.05,1.89-.65,3.8-1.03,5.83-1.06,1.9-.03,2.82-1.21,2.59-2.86-.14-1.01-.59-1.73-1.7-1.8-1.15-.07-2.32-.2-3.47-.14-1.73.09-3.02.85-3.24,2.84h-1.68c-.12-.21-.25-.34-.27-.49-.23-1.44.66-2.3,1.68-3.03,2.53-1.81,6.87-1.83,9.1-.29,1.3.89,1.85,1.95,1.81,3.49-.06,2.49-.01,4.99-.01,7.73m-2.15-2.27c-.08-.55-.15-1.09-.24-1.69-1.95.16-3.76.27-5.56.46-1.3.14-2.21.9-2.89,2.01-.9,1.46-.23,3.42,1.38,3.97,3.69,1.24,6.52-.44,7.31-4.74h0Z"/>
  <path class="cls-7" d="m551.64,199.42c.52-.67.86-1.24,1.28-1.74.43-.51.93-.96,1.51-1.54,1.1,1.52.78,2.64-.12,3.63-2.64,2.93-8.29,3.61-11.04.33-.57-.68-1.03-1.47-1.41-2.27-1.37-2.9-.49-8.66,1.59-10.72,2.9-2.88,9-2.42,11.14,1.04.99,1.6,1.15,3.59.75,5.82h-11.56c-.88,5.11,3.43,7.92,7.85,5.46m.9-10.38c-1.7-2.27-4.49-2.36-6.89-1.32-1.89.82-1.98,2.55-2.01,4.31h9.56c-.16-1.04-.28-1.85-.66-2.99h0Z"/>
  <path class="cls-7" d="m408.23,197.64c1.34,2.04,2.98,3.02,5.3,2.65,1.41-.22,2.43-.86,3.03-2.17.2-.42.45-.89.82-1.14.33-.22.84-.16,1.28-.22.04.43.21.89.1,1.27-.86,2.86-4.02,4.77-6.94,4.21-3.47-.66-5.83-2.43-6.35-6.18-.43-3.12-.44-6.17,1.75-8.67,2.44-2.78,7.36-2.77,9.74-.74,2.15,1.83,2.83,4.3,2.24,7.36h-11.46c.15,1.35.27,2.39.48,3.62m.54-8.83c-1.06.86-.91,2.02-.8,3.37,3.12.03,6.21.26,9.35-.14-1.11-3.6-.53-3.67-3.4-4.75-2-.75-3.45.19-5.15,1.51h0Z"/>
  <path class="cls-7" d="m481.72,148.86c3.58-2.06,7.15-1.51,9.11,1.34.44.64.64,1.44,1,2.29-1.27.51-1.87.51-2.49-.76-.84-1.73-4.68-2.56-6.11-1.42-.57.45-1.25,1.52-1.07,2,.34.9,1.13,1.88,1.99,2.27,1.33.6,2.91.62,4.3,1.11,1.04.37,2.17.9,2.88,1.69,2.05,2.25.96,5.9-1.99,6.77-2.08.62-4.18.84-6.36.09-1.92-.67-3.07-1.85-3.34-3.82-.07-.47.31-1.01.48-1.51.51.19,1.02.36,1.51.58.12.05.21.26.25.41.9,3.14,3,3.12,6.23,2.57,1.06-.18,1.62-1.11,1.78-2.17.17-1.17-.52-1.94-1.49-2.32-1.3-.51-2.69-.79-4.02-1.23-1.08-.36-2.19-.71-3.18-1.26-1.45-.81-1.86-3.76-.81-5.33.31-.46.78-.8,1.34-1.31h-.01Z"/>
  <path class="cls-7" d="m700.41,196.16c.9,2.91,2.44,4.02,5.02,4.23,3.05.25,3.9-2.3,5.39-3.93,1.32.22,1.36.94,1,1.86-1.02,2.58-4.5,4.51-7.29,3.95-1.04-.21-2.05-.58-3.03-1-2.48-1.07-2.84-3.51-3.36-5.7-.59-2.49-.1-5.04,1.06-7.25,1.34-2.54,3.92-3.16,6.6-3.07,5.35.18,7.3,4.73,5.99,8.84-3.57,0-7.22,0-11.26.06-1.23.84-1.25,1.51-.12,2.02m7.62-8.47c-.63-.19-1.26-.41-1.9-.55-3.34-.76-5.75,1.39-5.44,5.09h8.11c.47,0,.95-.12,1.55-.2-.32-1.64-.67-3.11-2.33-4.33h.01Z"/>
  <path class="cls-7" d="m538.53,149.94c-2.1-.07-4.23-.14-5.23,2.25-.34.8-.61,1.7-.63,2.56-.07,3.07-.03,6.14-.03,9.33-.59.06-1.05.11-1.81.19,0-3.2.02-6.25-.01-9.3-.01-.9-.04-1.85-.33-2.69-.8-2.35-3.79-3.18-5.83-1.7-1.32.96-1.87,2.26-1.85,3.87.02,2.58.02,5.16-.01,7.73-.03,2.12-.1,2.15-2.49,1.7v-15.53c.57-.05,1.39-.34,1.6-.1.93,1.08,1.61.79,2.72.15,2.69-1.54,5.57-.8,7.45,1.71.38-.26.76-.52,1.36-.68.91,1.01,1.49.1,2.11-.03,1.07-.22,2.19-.81,2.98.53h0Z"/>
  <path class="cls-7" d="m669.15,161.38c0-.95.06-1.72.1-2.43,1.36-.19,1.47.57,1.8,1.26,1.14,2.36,4.69,3.43,6.81,1.99.68-.47,1.44-1.44,1.41-2.15-.03-.69-.9-1.56-1.62-1.95-1.14-.62-2.46-.89-3.69-1.32-.77-.27-1.55-.52-2.29-.85-3.16-1.41-3.5-5.08-.7-7.15,2.24-1.65,5.86-1.25,7.54-.26,1.46.86,2.5,2.11,2.38,4.06-.99.38-1.74.49-2.4-.75-.95-1.8-4.46-2.66-6.03-1.52-.53.38-.98,1.25-.98,1.9,0,1.15.88,2.01,1.9,2.37,1.39.5,2.87.77,4.32,1.08,2.89.61,4.37,2.82,3.65,5.64-.27,1.04-.74,2-1.86,2.48-2.82,1.21-5.67,1.35-8.42-.06-.79-.4-1.27-1.42-1.94-2.34h.02Z"/>
  <path class="cls-7" d="m429.86,192.94c1.46.61,3.1.81,3.94,1.73,2,2.2,1.28,4.72-.82,6.15-3.22,2.2-7.76,1.92-9.92-.76-.58-.72-.8-1.77-1-2.71-.06-.31.49-.74.93-1.35.46.63.87,1.02,1.08,1.49,1.14,2.51,4.66,3.77,6.85,2.26.65-.45,1.17-1.44,1.29-2.25.16-1.07-.76-1.85-1.65-2.23-1.28-.54-2.66-.87-4.02-1.19-3.57-.86-4.32-2.49-4.22-4.83.08-1.76,1.15-2.94,2.44-3.42,2.62-.98,5.38-1.01,7.8.8,1.09.82,1.87,1.85,1.37,3.48h-1.62c-1.12-2.57-4.47-3.71-6.98-2.39-1.16.61-1.47,1.64-.53,2.59.77.78,1.8,1.32,2.79,1.85.64.34,1.39.47,2.27.78h0Z"/>
  <path class="cls-7" d="m511.71,202.15c-3.14.35-5.64-.63-7.13-3.16-1.41-2.38-1.89-5.07-1.18-7.88.46-1.81,1.21-3.35,2.72-4.55,3.33-2.65,11.26-1.76,12.23,4.9.35,2.39.24,4.82-.95,7.01-1.17,2.16-3.14,3.21-5.69,3.67m4.23-7.9c-.19-1.48-.24-2.99-.61-4.42-.44-1.71-2.84-2.9-5.06-2.75-2.89.2-4.15,1.39-4.34,4.31-.11,1.74-.21,3.54.14,5.21.25,1.19,1,2.56,1.96,3.25,1.85,1.32,5.29.44,6.54-1.55.67-1.07.88-2.42,1.36-4.06h.01Z"/>
  <path class="cls-7" d="m755.95,187.45c-.4-.04-.57-.07-.73-.07-4.06.02-4.77.63-4.97,4.7-.13,2.65-.02,5.32-.09,7.98-.05,1.68-.19,1.73-2.37,1.4v-15.36c1.15-1.36,2.02.12,3.01.4,1.84-1.11,3.71-1.66,5.88-1.13,2.63.64,4.07,1.98,4.16,4.71.13,3.73.03,7.47.03,11.43-.74.09-1.43.17-2.41.29v-6.19c0-1.83.03-3.66-.04-5.49-.07-1.97-.11-1.97-2.46-2.68h-.01Z"/>
  <path class="cls-7" d="m766.17,148.05c3.26,1.22,4.93,3.47,4.93,6.75,0,1.95.03,4.05-.64,5.82-1.35,3.62-4.01,4.11-7.66,3.97-5.99-.24-6.82-4.92-6.8-9.23,0-1.13.26-2.36.76-3.36,1.76-3.48,3.49-4.66,8.23-4.15.33.03.65.11,1.17.19m-4.19,1.97c-2.1.33-3.19,1.74-3.42,3.68-.2,1.71-.17,3.49.04,5.21.2,1.72,1.11,3.21,2.92,3.63,2.04.47,4.13.65,5.8-1.12,1.66-1.76,2.19-6.45,1.08-8.66-1.28-2.54-3.36-3.2-6.42-2.74Z"/>
  <path class="cls-7" d="m653.63,162.01c-1.98-3.78-2.09-7.38-.12-11.01,1.33-2.45,3.54-3.36,6.13-3.28,2.51.08,4.38,1.26,5.61,3.65.86,1.67.97,3.26.77,5.33h-11.22c-.68,2.38.44,3.96,1.92,5.3,1.46,1.32,3.29,1.03,4.93.44.64-.23.99-1.21,1.5-1.81.6-.7.96-2.1,2.21-1.41,1.41.78.19,1.73-.23,2.5-1.2,2.22-4.02,3.4-6.77,2.91-1.81-.32-3.53-.82-4.74-2.61m1.52-6.79c2.69.96,5.45.37,8.18.29.23,0,.44-.6.65-1.29-.32-.75-.59-1.52-.96-2.23-1.05-2.02-4.29-2.86-6.19-1.64-1.73,1.11-2.34,2.6-1.68,4.87Z"/>
  <path class="cls-7" d="m602.82,153.68v3.01h-11.15c-1.1.27-1.24.59-.46.99.11.57.19,1.14.33,1.7.51,2.09,1.63,3.11,3.72,3.4,2.24.32,3.6-.38,4.74-2.26.36-.59.9-1.14,1.49-1.49.22-.13.81.37,1.19.56-.71,4.98-6.44,5.88-10.02,4.4-.95-.39-1.78-1.41-2.35-2.33-2.33-3.8-2.07-8.51.67-11.71,3.22-3.77,9.02-2.81,11.04,2.12.26.76.53,1.18.8,1.59m-11.2,1.43c.11.12.23.33.34.34,2.47.05,4.95.1,7.42.09.22,0,.44-.43.98-.9.14-.36.28-.72.53-1.29-.24-.24-.49-.47-.92-1.02-1.72-2.4-3.55-3.06-6.08-2.17-1.61.56-2.39,2.06-2.27,4.96h0Z"/>
  <path class="cls-7" d="m687.18,190.81c.79,2.62.09,4.95-.34,7.31-.31,1.69-1.58,2.53-2.87,3.16-2.54,1.24-6.94,1.55-9.45-1.17-1.98-2.15-2.37-4.91-2.04-7.64.18-1.48.15-3.11,1.31-4.44,2.93-3.39,8.55-3.72,11.93-.7,1.05.94,1.28,2.05,1.46,3.48m-7.81,9.5c3.91.14,4.61-1.06,5.78-3.88.51-1.22.3-2.78.25-4.18-.12-3.3-2.07-5.38-5.33-5.13-3.55.28-4.83.61-5.12,4.6-.11,1.48-.09,3,.08,4.47.28,2.46,1.37,3.5,4.34,4.11h0Z"/>
  <path class="cls-7" d="m775.24,185.89c3.55,2.41,4.76,6.28,3.62,10.27-.59,2.04-1.21,3.88-3.2,5-2.93,1.65-7.26,1.34-9.69-.93-.68-.64-1.17-1.62-1.44-2.54-.83-2.74-.99-5.6.02-8.28,1.44-3.85,4.61-4.22,7.6-4.13.98.03,1.96.33,3.09.61m-5.12,1.49c-1.21.23-2.46.34-3.09,1.7-1.33,2.84-1.58,5.66-.11,8.55,1.14,2.23,2.85,3.03,5.83,2.57,2.06-.32,3.64-1.92,3.82-4.17.14-1.73.08-3.49-.03-5.22-.04-.6-.41-1.22-.75-1.75-1.27-2-3.28-1.88-5.68-1.68h.01Z"/>
  <path class="cls-7" d="m847.43,200.55c-3.3,2.06-6.42,2.18-9.69.22-1.57-.94-2.15-2.54-2.41-3.89-.48-2.54-.81-5.21.46-7.8.66-1.35,1.47-2.29,2.76-2.97,2.33-1.24,7.04-1.44,9.62,1.4.43.48.93,1.05,1.05,1.64.72,3.45,1.01,6.91-.68,10.21-.21.41-.64.71-1.12,1.18m-10.26-9.23c-.32,2.16-.27,4.26.79,6.27.93,1.77,2.31,2.76,4.32,2.73,1.9-.03,3.42-.52,4.44-2.46,1.32-2.48.98-4.99.56-7.47-.16-.97-1.13-2.11-2.04-2.58-1.73-.9-3.67-.7-5.56-.14-1.55.46-1.64,1.92-2.23,3.05-.04.07-.08.14-.3.59h.02Z"/>
  <path class="cls-7" d="m598.84,202.18c-1.25-.13-2.37-.13-3.36-.48-1.99-.69-3.6-1.83-4.05-4.15-.45-2.36-.76-4.62-.21-7.09.49-2.19,1.57-3.51,3.38-4.47,2.77-1.47,7.15-.7,9.26,1.68.58.65,1.16,1.44,1.37,2.26.62,2.43.73,4.94-.05,7.35-.94,2.94-3.04,4.59-6.34,4.91m.62-14.83c-3.05-.51-4.98.2-5.92,2.63-.9,2.35-.95,4.89.05,7.24,1.12,2.62,2.76,3.39,5.52,3.04,2.22-.29,3.71-1.66,4.04-4.23.23-1.77.08-3.62-.09-5.41-.17-1.87-1.29-2.97-3.61-3.26h.01Z"/>
  <path class="cls-7" d="m537.19,197.56v4.03h-2.43v-19.8h-6.26c-.83-2.34-.66-2.74,1.27-2.77,4.08-.06,8.16-.02,12.24-.02.33,0,.76-.05.97.12.4.34.9.79.97,1.25.1.73-.38,1.23-1.21,1.23-1.08,0-2.16,0-3.25.03-.65.02-1.29.1-2.3.19v15.73h0Z"/>
  <path class="cls-7" d="m629.52,193.19c-.37,2.08-.55,4-1.18,5.76-.73,2.08-3.77,3.55-6.45,3.28-1.29-.13-2.58-.53-3.8-.99-2.43-.92-2.86-3.29-3.4-5.38-.68-2.65-.24-5.36,1.09-7.7,1.42-2.49,4.07-2.94,6.7-2.92,2.3,0,4.56.62,5.7,2.78.78,1.48.92,3.29,1.35,5.18m-4.1-5.36c-.81-.2-1.6-.52-2.42-.58-2.98-.23-5.96.59-6.05,4.46-.03,1.49-.03,2.99.12,4.47.19,1.88,1.31,3.31,3.04,3.83,2.1.63,4.26.65,5.93-1.28,2.01-2.31,1.9-7.89-.63-10.89h.01Z"/>
  <path class="cls-7" d="m818.39,202.11c-3.84-.88-5.64-2.82-6.16-6.57-.31-2.26-.11-4.5.74-6.61.72-1.78,2.34-2.71,4.05-3.31,1.76-.62,3.64-.49,5.4.03,2.03.6,3.19,2.15,3.76,4.16-1.32.99-1.88.97-2.48-.52-.87-2.15-2.73-1.89-4.37-1.95-1.79-.06-3.64.45-4.17,2.4-.44,1.65-.47,3.45-.43,5.17.05,1.64.42,3.17,1.88,4.37,2.22,1.81,5.83,1.21,7.02-1.37.57-1.22,1.45-1.75,2.64-1.59-.31,3.76-2.55,6.07-7.89,5.8h0Z"/>
  <path class="cls-7" d="m571.52,196.26c-.04,4.02-2.98,5.72-5.99,5.93-3.03.22-5.7-1.11-7.13-4.79-1.15-2.96-.93-5.75.3-8.41.6-1.31,1.96-2.5,3.26-3.22,2.56-1.41,6.38-.47,8.4,1.75.31.34.62.75.77,1.18.25.71.47,1.63-.49,1.89-.73.2-1.27-.28-1.65-1.11-.93-2.02-2.24-2.49-4.97-2.08-2.35.35-3.14.94-3.39,3.25-.21,1.96-.23,4,.05,5.94.37,2.57,2.39,3.92,4.97,3.73,2.46-.18,3.16-2.03,3.77-4.14.65,0,1.28,0,2.08.07h.02Z"/>
  <path class="cls-7" d="m737.23,163.96c-2.46-.95-2.67-3.18-3.4-5.04-1.12-2.89.42-8.71,3.15-10.25,2.28-1.28,7.39-1.52,9.45,1.44.7,1.01.89,1.75.56,3.39-1.08.39-1.57-.42-1.91-1.13-1.24-2.64-3.27-2.68-5.89-2.24-1.55.26-2.95,2.19-3.21,4.21-.31,2.35-.28,4.62,1.15,6.69,1.82,2.64,7.09,2.37,7.92-.88.27-1.07.85-2.06,2.31-1.5.16,3.36-1.01,4.83-4.1,5.68-2.04.56-3.94.26-6.04-.37h0Z"/>
  <path class="cls-7" d="m477.52,185.68c.31-.06.63-.13,1.34-.12,1.39.05,2.38.02,3.37,0,.33,0,.66.03,1.17.28.54.41.9.58,1.26.75,1.75.65,2.71,1.9,3.02,3.76.33,1.97.34,3.88.09,5.9-.56,4.65-5.09,6.28-8.28,5.91-3.88-.45-6.29-3.19-6.41-7.16-.08-2.53-.34-5.13,1.91-7.32.56-.41.79-.73,1.02-1.05,0,0,0,.02.17.02.56-.33.95-.65,1.34-.97m5.36,1.47c-1.86-.82-3.68-1.11-5.66.62-.37.42-.88.78-1.08,1.26-1.15,2.76-1.36,5.51-.22,8.42.7,1.8,1.79,2.66,3.6,2.84,1.97.2,3.73-.05,4.98-1.88,1.31-1.92,1.16-4.05,1.11-6.19-.04-2.02-.81-3.64-2.72-5.07h-.01Z"/>
  <path class="cls-7" d="m663.5,187.28c-3.86.59-4.62,1.49-4.95,5.13-.19,2.06.33,3.97,1.06,5.8.87,2.18,4.8,2.92,6.63,1.25.92-.83,1.54-1.99,2.52-3.3h1.16c.09,3.22-1.2,4.92-4.05,5.66-2.43.63-4.73.63-6.77-1.07-3.83-3.19-3.51-11.83.54-14.52,2.48-1.64,7.2-1.19,9.21.96.49.52.87,1.23,1.03,1.92.1.44-.31.99-.48,1.5-.45-.24-1.2-.38-1.31-.73-.72-2.17-2.48-2.44-4.57-2.59h-.02Z"/>
  <path class="cls-7" d="m710.5,149.32c1.08-.24,1.73-2.08,3.47-.64v4.95c0,2.83.09,5.66-.04,8.48-.07,1.63-.48,3.24-.77,4.86-.27,1.52-1.39,2.44-2.61,3.08-3.07,1.61-6.19,1.49-9.22-.19-1.47-.82-1.74-1.38-1.75-3.55.88-.22,1.51-.41,2.18.73,1.71,2.93,5.66,2.68,8.34.93.99-.65,1.39-3.11.84-4.34-.03-.07-.31-.02-.73-.18-.48-.4-.69-.65-.83-1.07,2.06-2.29,2.71-5.37,2.07-8.09-.37-1.57-1.06-2.86-1.88-4.11.42-.31.68-.58.95-.85h-.02Z"/>
  <path class="cls-3" d="m735.4,63.53c-.17-2.09-.1-4.25-.2-6.4-.12-2.73-3.03-5.1-5.79-4.91,0,3.71.03,7.4-.02,11.1-.01,1.06-.24,2.11-.71,3.26-.57.1-.82.11-1.06.12,1.54-3.8.97-7.79.78-11.67-.14-2.8-1.12-5.56-1.58-8.51,1.93.7,3.71,1.6,5.53,2.43.35.16.85,0,1.28,0,.4.63.71,1.36,1.22,1.89,2.45,2.56,3.98,5.64,4.86,8.98.41,1.54.03,3.29.06,4.94.02.97.13,1.94.19,3.1-1.51-.05-1.2-1.53-1.53-2.38-.76-1.95-1.07-4.08-1.7-6.66-.31.87-.52,1.31-.63,1.78-.21.95-.36,1.91-.7,2.92h0Z"/>
  <path class="cls-7" d="m720.13,155.69c1.55-1.06,3.34-.83,5.07-.95,2.08-.14,2.47-.44,2.53-1.96.07-1.77-.6-2.57-2.44-2.74-.9-.08-1.82,0-2.73.03-1.28.04-2.04.74-2.57,1.88-.26.57-.82,1-1.35,1.61-1.1-2.3.11-4.73,2.33-5.45,2.12-.69,4.25-.61,6.36,0,1.64.46,3.01,2.64,3.05,4.95.06,2.99.01,5.98.01,9.03.64.48,1.25.94,2.06,1.54-1.41.95-2.71,1.13-3.75.16-.68-.63-1.15-.37-2.02-.39-.62-.37-.98-.6-1.24-.98,2.05-1.6,2.89-3.41,2.05-5.79-1.56,0-3.01,0-4.58-.12-1-.35-1.88-.57-2.76-.8h-.02Z"/>
  <path class="cls-7" d="m442.01,185.64s.19-.08.52-.03c1.45,0,2.57-.03,3.68-.07.33,0,.66.02,1.17.26.54.41.9.59,1.26.77,1.2.82,1.59,1.98,1.57,3.39-.04,2.5,0,5-.01,7.5-.01,1.27-.14,2.53,1.56,2.92.21.05.29.68.46,1.12-1.83.7-3.17.24-4.15-1.07-1.53.56-2.93,1.34-4.4,1.53-1.33.17-2.85-.05-4.1-.56-1.75-.7-2.53-2.33-2.4-4.2.12-1.71.66-3.27,2.67-3.7.15-.03.27-.19.75-.27.87.26,1.39.51,1.73.82-.26.08-.35.08-.42.12-1.99.97-2.72,2.24-2.32,4.05.3,1.38,1.64,2.15,3.69,2.08.57-.02,1.16-.09,1.71-.23,2.83-.71,4.13-4.53,2.1-6.78-.99-.02-1.77-.04-2.55.05-.82.11-.91-.4-.98-.98.4-.05.81-.11,1.21-.14,3.25-.24,3.72-.9,2.75-4.56-1.15-1.4-2.43-1.01-3.59-1.09-.77-.05-1.68.22-1.91-.94h0Z"/>
  <path class="cls-7" d="m641.47,161.71c-1.19-3.16-2.22-6.19-3.32-9.2-.47-1.3-1.07-2.56-1.61-3.84,1.99-.79,2.43-.66,2.89.78.61,1.88,1.13,3.8,1.83,5.65.66,1.75,1.5,3.42,2.41,5.44.49-.67,1.03-1.16,1.25-1.76,1.1-2.92,2.1-5.88,3.17-8.82.55-1.52,1.04-1.8,2.96-1.64-1.59,5.44-4.38,10.36-5.95,15.95-.98-.07-1.85-.13-2.67-.18-.32-.85-.58-1.54-.97-2.37h0Z"/>
  <path class="cls-7" d="m573.11,149.21c.84-.4,1.69-.81,2.89-1.23,1.59-.03,2.82-.03,4.04-.04.66.35,1.32.69,2.23,1.19.55.43.86.72,1.27,1.08.06,1.04.02,1.99-.15,2.83-.42-.5-.71-.89-1-1.29-1.42-1.97-3.44-1.93-5.56-1.77-1.98.15-3.07,1.49-3.45,3.03-.6,2.49-.8,5.12.53,7.54.27.48.65.93,1.07,1.29,2.12,1.81,6.21,1.08,7.58-1.31.28-.48.65-.91,1.09-1.26.02,1.2-.06,2.3-.14,3.4-1.47.64-2.88,1.58-4.41,1.87-3.85.72-6.93-.96-8.15-5.15-.93-3.19-.36-5.97,1.32-8.95.4-.55.63-.88.86-1.21l-.02-.02Z"/>
  <path class="cls-10" d="m733.62,48.71c-.42.26-.91.41-1.27.25-1.82-.83-3.6-1.74-5.56-2.61-1.1-1.5-2.24-2.92-2.93-4.53-1.4-3.27-3.88-5.63-6.28-8.09-.28-.29-.53-.61-.82-1.12.26-.3.54-.39.81-.49.54.18,1.08.36,1.81.76.57.43.96.63,1.34.83,0,0,.15,0,.24.18.4.38.72.56,1.03.74,2.65,1.48,4.89,3.45,6.86,5.74.8.93,1.57,1.87,2.52,2.98.85,1.81,1.54,3.45,2.24,5.34v.02Z"/>
  <path class="cls-7" d="m853.52,201.47c-.06-.06-.16-.12-.16-.18,0-5.05,0-10.1.02-15.15,0-.13.17-.27.46-.69.61.42,1.22.83,1.93,1.32,1.82-1.32,3.94-1.66,6.24-1.29,2.65.42,4.02,1.9,4.03,4.61.02,3.81,0,7.62,0,11.53h-1.91c-.08-.32-.18-.55-.19-.78-.02-3.24-.1-6.49-.02-9.73.08-2.99-1-3.97-4.37-3.85-1.04.03-2.06.54-3.42.77-.95-.39-1.58-.72-2.62-1.26v14.71h0Z"/>
  <path class="cls-11" d="m731.48,80.21c.39-1.65.77-3.31,1.19-4.96.7-2.75,1.42-5.49,2.25-8.37.17.5.23,1.15.24,2.23-.01,1.99.02,3.56.06,5.12-.27,3.21-.5,6.42-.83,9.62-.11,1.11-.46,2.19-.61,3.46-1.97,2.71-4.53,4.38-7.97,4.62,1.75-2.19,3.21-4.44,3.98-7.24.68-1.53,1.18-3,1.69-4.47h0Z"/>
  <path class="cls-7" d="m611.39,181.83v19.63c-.72.11-1.38.22-2.15.34-.17-.59-.36-.96-.37-1.34-.03-4.15-.03-8.3-.03-12.44,0-2.16-.05-4.32.03-6.47.03-.82.38-1.64.58-2.44,2.09.1,1.95,1.34,1.95,2.73h-.01Z"/>
  <path class="cls-7" d="m617.14,149.66v14.42c-2.1,0-2.15,0-2.16-1.84-.03-5.16-.01-10.32-.01-15.48,0-1-.04-2,.02-2.99.03-.48.12-1.01.37-1.4.18-.29.69-.56,1-.51.29.05.69.51.72.82.1,1.07.06,2.16.07,3.24v3.74h-.01Z"/>
  <path class="cls-7" d="m724.2,179.96c.79-.24,1.45-.34,2.24-.45v21.91c-2.28.38-2.55.29-2.56-1.42-.04-6.48,0-12.95.03-19.43,0-.15.11-.31.29-.61Z"/>
  <path class="cls-7" d="m498.55,148.14h2.51v1.75c-.93.11-1.8.21-2.88.33v11.21c0,1.12.74,1.47,1.62,1.42.96-.05,1.42.2,1.28,1.33-.69.12-1.43.42-2.13.35-2.01-.21-2.95-.65-2.89-2.82.1-3.4.02-6.8.03-10.2,0-.78.03-1.54-1.25-1.76-.21-.65-.24-1.05-.27-1.45.4-.1.8-.2,1.55-.39,0-1.02,0-2.16.23-3.5.71-.23,1.2-.24,1.68-.26.04.98.09,1.97.09,3.32.12.47.28.57.44.67h-.01Z"/>
  <path class="cls-7" d="m774.66,149.17c-.16-.57-.04-1.13.62-.99.62.13,1.17.6,1.98,1.06,1.63-1.28,3.69-1.8,6.02-1.24,2.19.53,3.71,1.99,3.77,4.22.1,3.9.03,7.8.03,11.85h-2.14v-6.83c0-1,.02-2,0-3-.03-1.69-.25-3.43-2.06-4.1-2.29-.86-4.34-.02-5.69,2.02-.09.14-.22.25-.5.31-.79-1.14-1.4-2.22-2.01-3.29h-.02Z"/>
  <path class="cls-7" d="m709.31,162.54c.21.25.42.5.67.91-3.99,2.11-7.67,1.44-9.82-1.73-.49-.72-.86-1.6-.97-2.46-.43-3.12-.78-6.29,1.4-8.99.87-1.08,1.89-2.06,3.82-2.19,1.4.03,2.38.02,3.36,0,.17-.02.35-.03.72.15.7.42,1.19.64,1.68.85,0,0,.22.03.28.13-.21.37-.47.64-1.04.94-.5-.04-.69-.1-.95-.33-1.43-.84-2.76-1.26-4.11.22-4.72,2.29-4.28,10.71.23,12.81,1.95,1.12,2.72,1.05,4.06-.25.3-.07.49-.07.67-.08v.02Z"/>
  <path class="cls-7" d="m584.53,187.62c-1.16-.08-2.32-.18-3.48-.23-2.62-.11-4.15,1.77-4.1,4.2.07,3.24.02,6.49.02,9.98-.74.06-1.42.12-2.33.2-.35-5.45-.11-10.64-.17-15.6,1.52-1.19,2.2-.17,3.01.57.57-.36,1.13-.7,1.96-.89,1.87.39,3.46.61,5.05,1,.02.37.03.58.04.79v-.02Z"/>
  <path class="cls-7" d="m460.5,187.42c-2.52.54-3.45,1.49-3.52,3.99-.09,3.32-.02,6.64-.02,9.9-2.3.55-2.53.46-2.56-1.36-.06-4-.06-7.99,0-11.99.01-.76.26-2.02.69-2.16.66-.21,1.57.34,2.67.66.72-.76,1.93-1.35,3.38-.92.24.07.36.58.32,1.02-.46.37-.71.61-.97.85h.01Z"/>
  <path class="cls-7" d="m741.03,187.63c-1.16-.08-2.32-.27-3.47-.23-2.96.09-4,1.13-4.09,4.08-.07,2.41-.03,4.81-.03,7.22v2.66c-2.33.55-2.59.42-2.61-1.54-.05-3.98-.05-7.97.02-11.95.01-.74.32-1.93.77-2.09.64-.22,1.54.34,2.73.67.19-.11.8-.48,1.64-.64,1.07.38,1.91.63,2.76.73.91.11,1.81.13,2.29,1.1h-.01Z"/>
  <path class="cls-7" d="m464.4,188.79v-2.77c1.32-.91,1.81.07,2.58.71,1.2-1,2.6-1.59,4.36-1.21.33,1.16.2,1.82-1.21,2.04-2.78.43-3.59,1.4-3.65,4.31-.06,3.15-.01,6.3-.01,9.6-.63.1-1.16.19-2.07.34v-13.02h0Z"/>
  <path class="cls-7" d="m883,133.68h-6.16c-.54-1.64-.06-2.81.77-4.05h10.2v3.94c-1.5.04-3.03.08-4.81.12h0Z"/>
  <path class="cls-7" d="m651.03,186.41c1.39-1.02,1.81-.94,2.1.22.06.24.08.49.08.74,0,4.24.04,8.48-.02,12.72-.02,1.58-.15,1.6-2.19,1.41,0-4.95,0-9.93.02-15.09h.01Z"/>
  <path class="cls-7" d="m687.98,147.94c.63.09,1.25.18,1.86.27.12,1.12-.54,1.77-1.98,1.96-.51.2-.7.32-.7.44-.05,3.69-.11,7.39-.08,11.08,0,.33.57.66.88,1,0,0,.03,0,.08.18.69.39,1.34.59,1.99.8-.69,1.24-1.78,1.16-2.88.78-.99-.35-1.68-.99-1.67-2.18.02-2.98,0-5.97,0-8.95v-2.87c-.65-.16-1.25-.3-1.95-.47v-1.7c.59-.12,1.14-.23,1.69-.34.09-.27.21-.5.23-.73.06-.99-.04-2.01.14-2.97s.77-1.31,1.56,0c.03,1.26-.02,2.16.07,3.04.03.26.49.46.75.69v-.03Z"/>
  <path class="cls-7" d="m493.25,201.39c-.61.22-1.09.26-1.71.3v-21.93c1.79-.38,1.89-.36,1.9,1.27,0,6.72-.03,13.45-.19,20.36h0Z"/>
  <path class="cls-7" d="m789.04,199.2c-.04.37-.08.73-.35,1.29-.38.5-.54.8-.69,1.1-1.62.72-2.32-.5-2.77-1.56-.92-2.17-1.58-4.44-2.38-6.67-.71-2-1.48-3.97-2.18-5.97-.16-.45-.13-.96-.21-1.59.86-.21,1.6-.59,2.04.58,1.2,3.22,2.42,6.42,3.6,10.02.29.99.5,1.71.95,2.19.64.68.93-.03,1.32-.5.12,0,.36.03.36.03,0,0,.24-.02.24.17.03.43.05.67.07.92h0Z"/>
  <path class="cls-7" d="m500.06,189.15v12.36c-.71.07-1.25.13-1.97.2v-22.03c1.25-.42,1.97-.21,1.97,1.23v8.24Z"/>
  <path class="cls-7" d="m693.39,148.41c1.33-.62,2.2-.23,2.22,1.06.08,4.48.08,8.95.01,13.43-.02,1.31-.39,1.4-2.36.99,0-5.1,0-10.22.13-15.48m.62,9.47v5.16h.42v-13.28h-.42v8.12Z"/>
  <path class="cls-7" d="m583.52,153.15c.04-.95.08-1.9.06-3.17-.03-2.79,0-5.28.01-7.76,0,0-.09-.03.14-.05.72.03,1.21.07,1.69.11,0,7.06-.01,14.11-.26,21.32-.67.11-1.09.06-1.52,0-.04-.21-.07-.43-.13-.8.06-1.26.15-2.36.11-3.75-.06-.65,0-1.02.2-1.45.81-1.13.99-2.14-.21-3.18-.06-.55-.09-.92-.11-1.29l.02.02Z"/>
  <path class="cls-7" d="m538.71,150c-.97-1.4-2.09-.82-3.17-.59-.62.13-1.21,1.04-1.95-.02-.05-.15-.04-.21.15-.21.56-.33.92-.65,1.28-.98.18-.06.35-.11.91-.12,1.17.03,1.97,0,2.77-.02.19,0,.37-.02.74.19.66.44,1.15.65,1.64.86.14.11.29.23.42.64.28.67.56,1.03.85,1.4v12.86c-.5.04-1.08.09-1.94.16,0-4.09,0-7.97.04-12.25.11-1.28-.29-1.76-1.16-1.86-.13,0-.26,0-.57-.07h-.01Z"/>
  <path class="cls-7" d="m831.35,191.17v10.24c-1.74.66-1.88-.21-1.88-1.24v-14.39c.7-.05,1.09-.08,1.75-.12.05,1.84.09,3.56.13,5.52h0Z"/>
  <path class="cls-7" d="m476.05,163.49c-.56.42-1.1.61-1.99.93v-4.35c0-3.48.01-6.96,0-10.43,0-1.14.34-1.78,1.96-1.28.03,2.4.07,4.92.08,7.45.01,2.48,0,4.97-.04,7.69h-.01Z"/>
  <path class="cls-7" d="m750.55,159.13v-10.85c.74-.05,1.26-.08,1.93-.12v15.91h-1.93v-4.94Z"/>
  <path class="cls-7" d="m741.02,187.64c-.47-.98-1.37-1-2.28-1.11-.85-.1-1.69-.35-2.63-.7.1-.21.29-.25.85-.23,1.31.04,2.24,0,3.17-.02.2,0,.4,0,.78.2.53.41.88.6,1.23.79,0,0,.2,0,.3.21.53.6.96,1.01,1.39,1.41.05.85.1,1.7.02,2.94-.2,3.75-.28,7.12-.35,10.49-.41.03-.81.06-1.54.1-.03-4.05-.07-8-.04-12.35-.26-.85-.58-1.29-.89-1.73,0,0-.02,0-.01,0h0Z"/>
  <path class="cls-7" d="m725.34,162.55c.36.23.72.46,1.12.85-.74.42-1.52.67-2.72.86-1.89-.22-3.36-.39-4.84-.55-.31-.2-.63-.4-.94-.9-.21-.59-.43-.88-.64-1.17-.08-.85-.15-1.7-.02-2.81.34-.64.48-1.02.63-1.39.62-.58,1.24-1.16,2.03-1.74,1.06.22,1.94.45,2.75.84-1.25.1-2,.88-2.83,1.54-.91.73-1.02,1.7-.71,2.67.32,1.04.96,1.92,2.23,1.92s2.63-.07,3.95-.11h0Z"/>
  <path class="cls-7" d="m621.98,163.67c-.02-4.68-.04-9.37.15-14.27,1.72.71,1.64,2.28,1.83,3.74-.01,3.33-.02,6.67-.25,10.25-.72.26-1.22.27-1.72.27h-.01Z"/>
  <path class="cls-7" d="m634.36,152.2v11.88h-1.85c0-3.89,0-7.67.13-11.74.66-.24,1.19-.19,1.73-.14h-.01Z"/>
  <path class="cls-7" d="m584.53,187.63c0-.22-.02-.43-.03-.81,0-.17.02-.18.21-.19.44-.02.69-.05.94-.07,0,0,.19,0,.3.2.54.61.97,1.02,1.39,1.42.05.53.1,1.06.02,1.95-.21,4.07-.28,7.77-.36,11.48-.08.03-.16.06-.44-.06-.48-.4-.77-.65-1.05-.9-.04-3.63-.09-7.26-.07-11.3-.26-.84-.58-1.28-.9-1.72,0,0-.02,0-.02,0h.01Z"/>
  <path class="cls-7" d="m853.72,201.58c-.2-4.89-.2-9.68-.2-14.82,1.04.54,1.67.87,2.42,1.32.12.12.11.1-.07.14-.38.59-.58,1.13-.78,1.68-.01,3.38-.02,6.75-.05,10.13,0,.76.24,1.78-1.33,1.54h.01Z"/>
  <path class="cls-7" d="m792.86,166.05c-.05-.67.02-1.34-.26-1.58-.98-.81-.57-1.77-.63-2.99,1.01.1,1.84.18,2.63.26.49,4.85-.06,6.25-2.68,6.48.33-.73.62-1.35.94-2.18h0Z"/>
  <path class="cls-7" d="m441.83,185.62c.41,1.17,1.32.9,2.09.96,1.17.08,2.45-.31,3.49.92-1.55.12-3.2-.06-4.83.07-.68.06-1.51.66-1.9,1.26-.98,1.5-.89,1.56-2.92,1.02.37-2.28,1.92-3.44,4.06-4.23h.01Z"/>
  <path class="cls-7" d="m624.07,153.01c-.3-1.33-.22-2.9-1.9-3.84.16-1.26.75-1.49,1.67-.68.21.19.26.56.44.97.83-.48,1.59-.91,2.61-1.25.39.02.53-.06.66-.14.51-.05,1.02-.09,1.71.08.55.76.92,1.29,1.29,1.83-.16.02-.34.08-.49.06-2.64-.47-4.62.44-6,2.96h.01Z"/>
  <path class="cls-7" d="m762.26,144.52c.67-1.09,1.2-2.09,1.86-2.99.63-.86,1.37-1.72,2.78-.85-.6,2.09-2.08,3.62-3.36,5.26-.25.31-1,.23-1.81.38.21-.76.33-1.21.53-1.8h0Z"/>
  <path class="cls-7" d="m621.78,183.42c-.59.03-1.04-.05-1.58-.15.9-1.56,1.66-2.99,2.54-4.34.86-1.32.91-1.28,3.17-.59-1.39,1.73-2.68,3.35-4.12,5.08h0Z"/>
  <path class="cls-7" d="m774.61,149.39c.67.86,1.28,1.94,1.93,3.2.05.38.06.58-.16,1-.44.96-.8,1.7-.82,2.44-.08,2.69-.05,5.38-.06,8.07-1.09.17-.97-.62-.97-1.26-.01-3.58,0-7.16,0-10.74,0-.83.01-1.66.08-2.71h0Z"/>
  <path class="cls-7" d="m869.71,129.65c.8-.09,1.47-.09,2.35-.09-.26,1.57-.45,2.74-.66,3.98h-2.49c-.51-1.49-.13-2.68.79-3.89h.01Z"/>
  <path class="cls-7" d="m841.08,182.43c.67-1.22,1.31-2.27,1.83-3.37.5-1.07,1.22-1.51,2.68-1.09-.18.56-.26,1.17-.56,1.66-.68,1.11-1.4,2.2-2.23,3.21-.31.38-.94.5-1.43.73-.13-.33-.25-.65-.29-1.13h0Z"/>
  <path class="cls-7" d="m863.94,130.5c-.34,3.01-.46,3.13-2.96,3.02v-3.74c1.13-.08,2.24-1.21,2.96.72Z"/>
  <path class="cls-7" d="m789.19,199.11c-.17-.15-.19-.39-.12-.98,1.26-3.49,2.4-6.65,3.63-9.78.13-.34.73-.5,1.11-.75-1.37,3.69-2.75,7.38-4.13,11.07-.05.14-.22.23-.48.44h-.01Z"/>
  <path class="cls-7" d="m687.89,162.45c-.24-.1-.81-.43-.81-.77-.03-3.69.03-7.39.08-11.08,0-.13.2-.25.48-.44.18,3.97.18,8.02.24,12.29h.01Z"/>
  <path class="cls-7" d="m793.86,187.45c-.44.4-1.04.56-1.17.9-1.22,3.13-2.37,6.28-3.63,9.59-.09.16-.33.18-.33.18,0,0-.24-.02-.36-.16-.17-.3-.21-.46-.25-.62,0,0-.03-.08.17-.18.35-.79.49-1.47.64-2.16.34-1,.67-2,1.23-3.24.74-1.58,1.25-2.93,1.76-4.28,0-.19.01-.38.27-.69.75-.13,1.25-.14,1.75-.16,0,.22,0,.44-.07.81h-.01Z"/>
  <path class="cls-7" d="m587.19,201.58c-.11-3.66-.04-7.37.15-11.24.09,3.62.06,7.41-.15,11.24Z"/>
  <path class="cls-7" d="m693.16,142.92c.34-.59.67-1,1-1.42,1.25.66,1.89,1.46,1.28,2.66-.21.41-.87.91-1.27.86-1.07-.13-1.01-1.1-1.01-2.1Z"/>
  <path class="cls-7" d="m775.73,164.14c-.21-2.73-.25-5.42-.17-8.11.02-.75.38-1.49.77-2.3.21,3.06.27,6.2.25,9.33,0,.38-.41.75-.85,1.08h0Z"/>
  <path class="cls-7" d="m743.69,201.58c-.11-3.33-.04-6.7.14-10.24.09,3.28.07,6.74-.14,10.24Z"/>
  <path class="cls-7" d="m652.85,182c-.88.77-1.53.62-1.77-.32s-.38-1.98.88-2.58c1.19.6,1.56,1.5.88,2.9h.01Z"/>
  <path class="cls-7" d="m829.85,182.27c-.5-1.21-.85-2.32.55-3.17,1.1.5,1.35,1.37,1.06,2.42-.19.7-.63,1.17-1.61.75Z"/>
  <path class="cls-7" d="m474.96,141.68c.3.04.52.05.6.15.7.97.78,2.65.08,3.05-.29.17-.85.18-1.13,0-.73-.44-.55-1.96.45-3.21h0Z"/>
  <path class="cls-7" d="m750.65,144.4c-.06-.76-.19-1.39-.01-1.9.13-.36.7-.79,1.05-.78.33.02.82.54.9.92.15.7.04,1.45.04,2.65-.87-.32-1.4-.51-1.98-.89Z"/>
  <path class="cls-7" d="m442.49,193.99c-.52-.25-1.04-.49-1.72-.77.7-.33,1.56-.64,2.6-.9.25.63.34,1.13,1.16,1.02.77-.1,1.56-.08,2.4.07-1.44.31-2.94.44-4.44.57h0Z"/>
  <path class="cls-7" d="m630.71,150.04c-.52-.59-.88-1.13-1.25-1.83,1.59-.5,2.6.38,3.53,1.82-.25,1.33-.9.45-1.37.57,0,0-.06-.06-.05-.21-.08-.3-.21-.36-.39-.31-.11,0-.21,0-.47-.04h0Z"/>
  <path class="cls-3" d="m735.38,74.14c-.19-1.47-.23-3.04-.21-4.83,1.29,1.36.97,3.04.21,4.83Z"/>
  <path class="cls-7" d="m584.5,186.67c-1.6-.22-3.19-.44-4.88-.83.09-.21.28-.25.85-.23,1.31.04,2.24,0,3.17-.03.2,0,.4,0,.74.2.15.43.15.65.15.86,0,0-.02.02-.03.03h0Z"/>
  <path class="cls-7" d="m631.58,150.76c.51-.28,1.16.6,1.48-.57,1.19-.1,1.43.67,1.34,1.82-.58.13-1.12.08-1.78.09-.45-.35-.76-.77-1.04-1.34Z"/>
  <path class="cls-7" d="m791.74,187.55c-.34,1.29-.86,2.64-1.54,4.05.34-1.29.86-2.64,1.54-4.05Z"/>
  <path class="cls-7" d="m718.98,163.86c1.39,0,2.87.17,4.58.37-1.41,1.25-2.94.2-4.58-.37Z"/>
  <path class="cls-7" d="m687.99,147.74c-.28-.03-.74-.24-.77-.5-.1-.88-.04-1.78,0-2.87.28.18.65.54.71.94.12.73.06,1.48.06,2.42h0Z"/>
  <path class="cls-11" d="m715.09,32.09c-.99-.56-1.97-1.12-3-1.84.88.03,1.79.24,2.81.75.13.57.16.83.19,1.09Z"/>
  <path class="cls-7" d="m787.95,197.5c.2,0,.25.16.29.45-.27.61-.56,1.32-1.2.64-.46-.48-.67-1.2-.95-2,.59.23,1.14.65,1.86.91h0Z"/>
  <path class="cls-7" d="m446.07,185.47c-.97.12-2.08.16-3.44.16.91-.62,2.08-.7,3.44-.16Z"/>
  <path class="cls-5" d="m715.24,32.13c-.18-.3-.21-.56-.24-.95.78.15,1.56.44,2.46.83-.16.21-.44.3-.83.49-.49-.05-.87-.19-1.4-.37h.01Z"/>
  <path class="cls-7" d="m794.04,186.58c-.61.08-1.11.09-1.8.09-.25-1.29.71-1.1,1.45-1.05.45.03,1.02.23.35.96Z"/>
  <path class="cls-7" d="m583.51,185.48c-.81.13-1.74.16-2.9.14.77-.11,1.77-.17,2.9-.14Z"/>
  <path class="cls-7" d="m740.01,185.49c-.81.13-1.74.16-2.9.14.77-.11,1.77-.17,2.9-.14Z"/>
  <path class="cls-7" d="m482.08,185.48c-.84.1-1.83.12-3.06.11.81-.09,1.86-.14,3.06-.11Z"/>
  <path class="cls-7" d="m707.61,148.01c-.83.09-1.81.11-3.03.1.77-.57,1.81-.72,3.03-.1Z"/>
  <path class="cls-7" d="m538.56,148c-.66.1-1.46.12-2.5.11.6-.56,1.47-.66,2.5-.11Z"/>
  <path class="cls-7" d="m498.06,144.02c-.53.14-1.01.16-1.68.17.04-.31.29-.9.49-.89.42.02.82.37,1.18.71h.01Z"/>
  <path class="cls-7" d="m690.04,163.51c-.67-.06-1.32-.26-2.01-.64.59.23,1.68-.8,2.01.64Z"/>
  <path class="cls-7" d="m494.43,148.32c.16.38.19.77.2,1.32-.95-.17-.79-.7-.2-1.32Z"/>
  <path class="cls-7" d="m539.34,150.22c.8-.04,1.21.44,1.11,1.5-.37-.33-.71-.84-1.11-1.5Z"/>
  <path class="cls-7" d="m587.37,188.03c-.45-.25-.88-.65-1.33-1.22.43.25.89.65,1.33,1.22Z"/>
  <path class="cls-7" d="m788.77,195.11c0,.59-.15,1.28-.46,2.04,0-.6.16-1.27.46-2.04Z"/>
  <path class="cls-7" d="m700.43,195.96c-1.16-.3-1.13-.97-.14-1.79.16.5.17,1.05.14,1.79Z"/>
  <path class="cls-7" d="m585.46,200.75c.33.15.62.4.97.78-.7.43-1.11.22-.97-.78Z"/>
  <path class="cls-7" d="m621.97,163.82c.52-.17,1.02-.17,1.71-.2-.24,1.18-.99.71-1.71.2Z"/>
  <path class="cls-7" d="m743.85,188.03c-.45-.24-.87-.64-1.32-1.2.43.24.89.64,1.32,1.2Z"/>
  <path class="cls-7" d="m542.36,151.02c-.31-.21-.6-.58-.88-1.1.3.21.6.58.88,1.1Z"/>
  <path class="cls-7" d="m477.36,185.67c-.23.34-.63.66-1.19.98.23-.33.63-.66,1.19-.98Z"/>
  <path class="cls-7" d="m855.22,189.77c.09-.42.29-.96.68-1.55-.06.45-.31.93-.68,1.55Z"/>
  <path class="cls-7" d="m534.87,148.2c-.21.34-.57.66-1.1.99.21-.33.58-.67,1.1-.99Z"/>
  <path class="cls-7" d="m584.59,187.79c.28.28.6.72.88,1.34-.31-.27-.57-.73-.88-1.34Z"/>
  <path class="cls-7" d="m602.85,153.51c-.3-.25-.57-.67-.83-1.25.3.25.58.67.83,1.25Z"/>
  <path class="cls-7" d="m540.95,149.02c-.37-.1-.85-.31-1.39-.69.39.08.83.33,1.39.69Z"/>
  <path class="cls-7" d="m741.07,187.8c.28.29.6.73.87,1.35-.31-.28-.57-.74-.87-1.35Z"/>
  <path class="cls-7" d="m710.04,148.98c-.36-.11-.86-.32-1.44-.68.38.09.84.33,1.44.68Z"/>
  <path class="cls-5" d="m720.64,33.62c-.3-.1-.69-.3-1.11-.63.32.09.67.31,1.11.63Z"/>
  <path class="cls-7" d="m583.62,163.76c.45-.09.87-.04,1.5.06-.36.67-.94.57-1.5-.06Z"/>
  <path class="cls-7" d="m460.66,187.46c.09-.28.35-.52.74-.78-.1.26-.34.54-.74.78Z"/>
  <path class="cls-7" d="m788.13,201.57c.02-.28.17-.58.46-.92-.02.27-.17.59-.46.92Z"/>
  <path class="cls-5" d="m721.96,34.5c-.27-.04-.59-.22-.94-.54.27.04.59.22.94.54Z"/>
  <path class="cls-7" d="m475.84,186.64c-.07.31-.3.63-.69.97.07-.3.3-.63.69-.97Z"/>
  <path class="cls-7" d="m591.29,157.52c-.85-.24-.72-.57.15-.84.07.22,0,.45-.15.84Z"/>
  <path class="cls-7" d="m742.08,186.43c-.3-.04-.65-.23-1.04-.58.3.04.64.23,1.04.58Z"/>
  <path class="cls-7" d="m717.79,157.51c-.01.29-.16.66-.44,1.09,0-.29.16-.65.44-1.09Z"/>
  <path class="cls-7" d="m584.72,186.64c-.19-.21-.2-.43-.2-.81.34.03.69.23,1.09.58-.19.18-.44.2-.88.23h-.01Z"/>
  <path class="cls-7" d="m717.3,161.77c.23.15.45.44.66.87-.23-.15-.45-.44-.66-.87Z"/>
  <path class="cls-7" d="m448.54,186.48c-.25-.08-.6-.26-1-.6.27.06.58.28,1,.6Z"/>
  <path class="cls-7" d="m484.58,186.46c-.28-.04-.64-.21-1.04-.53.3.03.63.21,1.04.53Z"/>
  <path class="cls-11" d="m711.44,29.53l-.07-.02s.11.02.07.02Z"/>
  <path class="cls-2" d="m659.86,40.71c.06.1-.01.2-.22.29-.05-.1.03-.19.22-.29Z"/>
  <path class="cls-7" d="m498.46,148.04c-.07,0-.23-.11-.38-.37.1,0,.2.13.38.37Z"/>
  <path class="cls-7" d="m627.42,148.07c0,.08-.13.16-.33.17.02-.11.11-.14.33-.17Z"/>
  <path class="cls-7" d="m631.23,150.17c.13-.13.26-.08.36.19-.12.08-.23,0-.36-.19Z"/>
  <path class="cls-4" d="m653.62,58.66c.26-.03.62.14.6.26-.27,2.15.81,4.03,1.15,6.22-.2.9-.59,1.65-.63,2.41-.09,2.15-.02,4.3-.04,6.45-.01.88-.12,1.76-.44,2.67-.81-1.67-1.51-3.36-1.54-5.19-.04-2.79-.4-5.61.66-8.33.21-.54.65-1.46-.58-1.88.12-.79.43-1.61.82-2.6h0Z"/>
  <path class="cls-4" d="m654.33,49.29c.01.91-.16,1.88-.48,2.93-.27-.95-.7-2.02.48-2.93Z"/>
  <path class="cls-6" d="m708.11,53.64c-1.19-.81-2.18,0-3.23.4-2.99,1.15-6,2.28-8.99,3.42-4.65,1.78-7.86,5.35-11.16,8.85-3.69,3.92-5.88,8.67-8.04,13.87-.28,1.07-.6,1.76-.69,2.47-.09.68.06,1.39.05,2.28-.23,1.37-.4,2.55-.63,3.78-.13.21-.08.34.1.52.02.09.03.28.02.5v1.96h.02c-.4,0-.8-.02-1.39-.04-.19,0-.18.02-.21-.14-.35-.39-.67-.62-.97-.86.02-.01-.01.02,0-.21-.01-3.53-.03-6.81-.1-10.31.04-2.01.12-3.8.35-5.69.68-1.18,1.42-2.22,1.7-3.38.85-3.45,3.2-5.95,5.32-8.54,2.47-3.02,5.45-5.53,8.62-7.87,2.28-1.69,4.56-3.32,7.22-4.24,1.16-.4,2.04-1.02,3.07-1.78.32.08.5.23.62.2,2.5-.64,4.99-1.29,7.47-1.98.13-.04.16-.44.47-.67,1.76-.05,3.29-.1,5.05-.2,1.58-.32,2.95-.59,4.5-.84.73-.18,1.27-.38,1.81-.57.66,1.72,2,3.17,1.8,5.41-.7.46-1.21.66-1.85.77-1-.65-1.72-.55-2.47.43-1.39-.07-2.6-.41-3.77.59-1.06.11-1.93.3-2.79.32-1.07.03-1.53.7-1.89,1.54h-.01Z"/>
  <path class="cls-10" d="m712.8,51.78c.6,1.07,1.02,2.12,1.41,3.18,2.15,5.94,1.28,11.4-2.63,16.37-.6.77-1.16,1.58-1.81,2.49-1.34-.27-2.6-.67-3.93-1.19,1.84-1.98,3.02-4.25,3.69-6.8.29-1.1.73-2.18.88-3.3.43-3.12-.22-6.03-2.19-8.75.26-.98.72-1.64,1.79-1.67.87-.03,1.73-.22,2.79-.32h0Z"/>
  <path class="cls-10" d="m674.66,37.8c-.28-.05-.55-.1-1.03-.33-.1-.71,0-1.24.1-1.77.54-.59.98-1.44,1.65-1.72,2.58-1.07,5.23-1.95,8.22-2.93,1.76-.4,3.16-.74,4.54-1.16.34-.11.6-.49.89-.75,4.92-.24,9.57.97,14.12,2.68,1.36.51,2.68,1.11,3.9,1.8-1.28.07-2.44.02-3.73-.16-1.32-.28-2.52-.43-3.92-.64-.6-.02-1,0-1.63,0-2.1-.02-3.98,0-6.07-.02-2.31.27-4.42.49-6.5.91-2.3.47-4.54,1.23-6.85,1.66-1.64.31-2.83,1.05-3.7,2.43h.01Z"/>
  <path class="cls-5" d="m705.42,76.77c-1.01.84-2.02,1.61-3.13,2.19-.59.31-1.37.39-2.05.34-.34-.02-.92-.59-.9-.88.03-.46.44-1.23.75-1.26,1.19-.12,1.87-.83,2.57-1.86,1.25-.21,2.08.38,2.76,1.47Z"/>
  <path class="cls-3" d="m688.8,29.14c-.06.26-.31.64-.66.75-1.38.42-2.78.76-4.34,1.1-.47-1-1.31-.86-2.23-.99.51-.33,1.2-.82,1.91-.86,1.69-.11,3.39,0,5.32,0Z"/>
  <path class="cls-10" d="m708.59,34.41c-.29-.07-.64-.24-1.05-.51.29.06.64.24,1.05.51Z"/>
  <path class="cls-9" d="m670.99,101.33c.29.02.63.18,1.01.49-.29-.02-.63-.18-1.01-.49Z"/>
  <path class="cls-9" d="m669.07,100.3c.2.01.49.16.81.47-.21,0-.48-.17-.81-.47Z"/>
  <path class="cls-9" d="m667.11,99.27c.2,0,.48.13.8.42-.21,0-.47-.14-.8-.42Z"/>
  <path class="cls-9" d="m665.34,98.36c.1-.05.29.02.57.22-.1.05-.29-.02-.57-.22Z"/>
  <path class="cls-5" d="m715.97,97.95c-3.2,2.25-6.65,3.92-10.34,5.14-6.63,2.19-13.44,1.59-20.65,1.43,1.9-.4,3.38-.71,4.99-1.17,1.62-.21,3.1-.27,4.97-.35.99-.26,1.58-.51,2.18-.77.51-.05,1.01-.09,1.86-.18.76-.32,1.18-.59,1.6-.87.21-.02.42-.03.94-.09.88-.36,1.44-.67,2.01-.98.27-.03.55-.06,1.09-.19.46-.34.66-.57.85-.8.29-.05.58-.1,1.14-.25.53-.29.78-.48,1.03-.67.8-.52,1.6-1.05,2.4-1.74,1.19.58,2.48.8,3.86.8.67,0,1.33.33,2.07.68h0Z"/>
  <path class="cls-5" d="m695.91,88.46c-6.87.86-13.36-.43-19.64-3.67-.2-.73-.35-1.44-.26-2.12.09-.72.41-1.41.67-2.3,1.35.6,2.64,1.43,3.97,2.19,3.74,2.13,7.77,3.33,12.06,3.67.23.02.47-.14.9-.29.89.74,1.59,1.56,2.3,2.53h0Z"/>
  <path class="cls-3" d="m708.64,90.61c1.38-1.56,2.89-3.06,4.49-4.48,1.21-1.08,2.28-2.18,1.99-4.22.91-.05,1.69-.1,2.53-.14.69,2.4.64,4.3-1.27,6.03-1.11,1-2.48,2.06-2.41,4.08-1.72-.26-3.44-.72-5.32-1.27h-.01Z"/>
  <path class="cls-5" d="m701.49,85.95c1.2-.53,2.44-.9,4.03-1.28.59.31.83.62,1.07.93-1.07.53-2.13,1.07-3.25,1.77-.64-.31-1.22-.79-1.85-1.42h0Z"/>
  <path class="cls-3" d="m706.53,89.89c.29,0,.59.13.89.4-.29,0-.59-.13-.89-.4Z"/>
  <path class="cls-5" d="m717.02,97.69l.19.05s-.06.14-.13.11c-.07-.02-.11-.16-.06-.16Z"/>
  <path class="cls-12" d="m698.92,34.58c7.16,1.4,13.62,4.05,18.13,10.39-1.33.44-2.69.71-4.3.9-1.13-.8-1.95-1.64-2.92-2.22-3.22-1.91-6.62-3.3-10.46-3.21-3.89.09-7.81-.06-11.66.35-2.74.29-5.4,1.35-8.1,2.06-1.9-.95-3.81-1.91-5.77-3.03-.06-.18.05-.28.22-.35.29-.29.4-.51.52-.72,0,0,.04,0,.23-.03.66-.18,1.15-.3,1.6-.49,4.61-1.94,9.23-3.79,14.55-3.68,1.75.02,3.32-.02,5.11-.05,1.11.03,1.99.06,2.87.08h-.02Z"/>
  <path class="cls-10" d="m671.9,80.89c-.56-.34-1.35-.53-1.65-1.03-1.59-2.56-3.63-4.85-4.32-7.95-.4-1.78-.87-3.51-.84-5.36.05-3.06.91-5.95,2.43-8.48,1.87-3.13,3.67-6.43,7.1-8.32,1.27-.7,2.37-1.7,3.73-2.62,2.57.11,3.73,1.97,5,3.75-.77.58-1.44.89-2.07,1.28-4.8,2.98-8.78,6.5-9.75,12.57-.56,3.54.15,6.69,1.56,9.82-.08,1.8-.16,3.59-.38,5.68-.36.41-.59.54-.82.66h.01Z"/>
  <path class="cls-10" d="m699.17,48.65c-2.86-.64-5.54-.66-8.21.13-1.1.33-2.25.52-3.58.84-2.29-.7-3.44-2.5-4.65-4.32,3.31-1.81,6.81-1.99,10.2-2.52,2.76-.43,5.56-.09,8.36.61,2.3.58,4.41,1.25,6.21,2.79-.08.23-.11.63-.24.67-2.48.69-4.98,1.34-7.47,1.98-.12.03-.3-.12-.62-.2v.02Z"/>
  <path class="cls-12" d="m674.96,44.84c-6.95,4.42-12.38,10.03-15.01,18.24-.53-.38-1.28-.9-1.33-1.48-.16-1.97-.17-3.97-.04-5.95.06-.85.6-1.68,1.06-2.83,2.25-2.84,3.75-5.87,6.37-8,.16-.13.17-.45.26-.69,2.93-.84,5.82-.97,8.7.7h-.01Z"/>
  <path class="cls-3" d="m668.08,83.79c.77.41,1.34,1.07,1.73,1.99-.82.21-1.38,0-1.79-.91-.02-.41,0-.65.05-1.08h.01Z"/>
  <path class="cls-12" d="m658.83,77.13c-.25-.77-.38-1.65-.52-2.76,1.41.54,1.46.74.52,2.76Z"/>
  <path class="cls-3" d="m669.04,38.87c.55,0,1.21.15,1.93.45-.56,0-1.19-.16-1.93-.45Z"/>
  <path class="cls-3" d="m729.79,84.68c-.37-.12-.57-.3-.89-.55.67-1.35,1.45-2.63,2.42-3.92-.34,1.46-.85,2.93-1.52,4.46h0Z"/>
  <path class="cls-7" d="m655.07,155.05c2.77-.23,5.62-.29,8.69-.4,0,.27-.2.86-.43.87-2.73.08-5.49.67-8.26-.47Z"/>
  <path class="cls-7" d="m591.55,154.92c2.63-.17,5.33-.15,8.26-.09.01.27-.21.7-.43.7-2.47,0-4.95-.04-7.42-.09-.12,0-.23-.22-.41-.52h0Z"/>
  <path class="cls-7" d="m600.84,153.45c-.26-.1-.46-.3-.67-.66.24.08.48.31.67.66Z"/>
  <path class="cls-7" d="m482.96,187.32c-1.61.19-3.3.21-5.21.23,1.45-1.51,3.27-1.22,5.21-.23Z"/>
  <path class="cls-3" d="m690.76,34.49c-5.13-.06-9.75,1.8-14.36,3.74-.45.19-.94.31-1.59.47-.2-.19-.21-.39-.18-.75.9-1.52,2.09-2.27,3.73-2.58,2.3-.43,4.55-1.19,6.85-1.66,2.07-.42,4.19-.64,6.52-.77.27.38.3.57.22.85-.47.29-.82.49-1.18.7h0Z"/>
  <path class="cls-3" d="m673.59,35.71c.04.51-.06,1.05-.18,1.75-1.09-.49-.58-1.11.18-1.75Z"/>
  <path class="cls-3" d="m674.44,38.75c.02.21-.1.43-.35.66-.02-.21.1-.43.35-.66Z"/>
  <path class="cls-7" d="m708.45,149.83c-1.12.16-2.3.16-3.72.16.96-1.42,2.29-.99,3.72-.16Z"/>
  <path class="cls-7" d="m704.58,162.87c1.12-.18,2.31-.19,3.72-.19-1,1.23-1.77,1.31-3.72.19Z"/>
  <path class="cls-7" d="m694.01,157.64v-7.88h.42v13.28h-.42v-5.4Z"/>
  <path class="cls-7" d="m583.84,157.62c-.19-.81-.22-1.69-.21-2.79,1.2.65,1.02,1.66.21,2.79Z"/>
  <path class="cls-3" d="m706.76,85.6c-.41-.3-.65-.61-1.04-.98-.03-.27.04-.61.21-.67,1.22-.42,2.46-.81,3.71-1.14.25-.07.57.15,1.33.37-1.59.95-2.81,1.68-4.2,2.42h-.01Z"/>
  <path class="cls-12" d="m719.04,50.76c.48,1.32.82,2.56,1.23,4.02-.57.8-.01,2.65-1.92,3.21-.98-.67-1.58-1.4-.74-2.74.24-.39.07-1.09-.04-1.63-.15-.72-.43-1.41-.71-2.28.45-1.14,1.17-1.23,2.17-.58h.01Z"/>
  <path class="cls-3" d="m671.9,81.11c.23-.34.46-.46.86-.67.2,3.2.22,6.49.23,10.02-1.17-.02-.93-.95-.95-1.74-.06-2.46-.1-4.93-.14-7.61h0Z"/>
  <path class="cls-3" d="m675.55,89.74c.56-.11,1.12,0,1.73.12.03,1.06-.58,1.49-1.56,1.81-.18-.55-.18-1.13-.17-1.93Z"/>
  <path class="cls-3" d="m673.97,91.53c-.3-.07-.62-.3-.97-.69.3.07.62.3.97.69Z"/>
  <path class="cls-3" d="m675.42,88.72c.06-.05.09.19.09.31-.17.03-.21-.1-.09-.31Z"/>
  <path class="cls-3" d="m703.32,33.47c-1.11,0-2.35-.15-3.66-.43,1.13,0,2.33.16,3.66.43Z"/>
  <path class="cls-3" d="m695.87,33.81c.56-.06,1.12-.11,1.89-.18.51.21.82.43,1.14.8-.86.12-1.75.1-2.8-.04-.21-.27-.22-.43-.23-.58h0Z"/>
  <path class="cls-9" d="m697,102.13c-.49.36-1.09.61-1.85.83.21-.89.79-1.3,1.85-.83Z"/>
  <path class="cls-9" d="m703.41,100.02c-.45.4-1.02.72-1.75,1.01.15-.86.7-1.3,1.75-1.01Z"/>
  <path class="cls-9" d="m700.47,101.09c-.32.38-.73.66-1.31.92.05-.69.26-1.36,1.31-.92Z"/>
  <path class="cls-9" d="m705.31,99.15c-.04.21-.23.44-.58.7.04-.2.23-.44.58-.7Z"/>
  <path class="cls-9" d="m707.47,98.21c-.08.19-.34.38-.75.57.09-.19.34-.38.75-.57Z"/>
  <path class="cls-5" d="m695.66,33.82c.22.14.23.3.22.56-1.61.15-3.18.19-4.93.17.17-.27.52-.47.99-.76,1.24-.04,2.38,0,3.72.03h0Z"/>
</svg>